<?xml version="1.0" encoding="UTF-8" standalone="no"?>
<!-- Created with Inkscape (http://www.inkscape.org/) -->

<svg
   version="1.1"
   id="svg1"
   width="2666.6667"
   height="2666.6667"
   viewBox="0 0 2666.6667 2666.6667"
   sodipodi:docname="070ee491-fb67-4e89-805b-d3fcbfab3b8a.eps"
   xmlns:inkscape="http://www.inkscape.org/namespaces/inkscape"
   xmlns:sodipodi="http://sodipodi.sourceforge.net/DTD/sodipodi-0.dtd"
   xmlns="http://www.w3.org/2000/svg"
   xmlns:svg="http://www.w3.org/2000/svg">
  <defs
     id="defs1" />
  <sodipodi:namedview
     id="namedview1"
     pagecolor="#ffffff"
     bordercolor="#000000"
     borderopacity="0.25"
     inkscape:showpageshadow="2"
     inkscape:pageopacity="0.0"
     inkscape:pagecheckerboard="0"
     inkscape:deskcolor="#d1d1d1">
    <inkscape:page
       x="0"
       y="0"
       inkscape:label="1"
       id="page1"
       width="2666.6667"
       height="2666.6667"
       margin="0"
       bleed="0" />
  </sodipodi:namedview>
  <g
     id="g1"
     inkscape:groupmode="layer"
     inkscape:label="1">
    <g
       id="group-R5">
      <path
         id="path2"
         d="m 4437.81,10089.5 c -5.12,-0.6 -10.24,-1.1 -15.36,-1.6 -1.7,-13.1 -7.08,-26.9 -4.56,-39 36.54,-176.6 46.18,-355.6 50.07,-535.1 0.44,-20.5 0.6,-40.9 31.29,-55.9 4.56,20.5 11.38,37.1 11.28,53.6 -0.19,33.5 -6.02,67 -6.18,100.5 -0.7,144.7 -22.24,286.8 -49.8,428.3 -3.28,16.8 -11.05,32.8 -16.74,49.2 z m 967.93,1420.7 c -19.72,-25.3 -4.64,-38.4 2.92,-52.2 44.02,-80.7 91.14,-159.8 132.03,-242 127.19,-255.7 233.93,-519.7 313.44,-794.4 5.85,-20.2 15.93,-39.2 25.76,-62.9 22.89,30.3 24.53,30.9 14.86,59.3 -49.58,145.4 -96.75,291.8 -151.03,435.5 -80.34,212.8 -182.15,415.5 -301.5,609.2 -9.94,16.1 -23.12,30.2 -36.48,47.5 z m 788.6,-5434.4 c 0.17,-5 0.33,-10.1 0.5,-15.1 14.93,-3 29.79,-8.1 44.81,-8.6 82.41,-3.2 164.86,-5.1 247.29,-7.8 37.5,-1.2 75.24,-0.8 112.43,-5 137.58,-15.8 274.91,-33.6 412.44,-49.8 132.73,-15.6 195.48,44.6 228.27,171.4 7.68,29.7 -4.64,56.9 -31.73,72.3 -19.18,10.8 -41.05,20.8 -62.57,23 -113.51,11.7 -227.18,22.5 -341.02,30.3 -106.56,7.2 -213.36,12.5 -320.13,14.2 -67.18,1.1 -134.5,-5.7 -201.71,-9.7 -17.44,-1 -28.63,-8.9 -19.8,-32.1 38.05,0 76.93,1.3 115.7,-0.2 219.13,-8.5 438.25,-17 657.3,-27.2 40.92,-1.9 81.92,-9.2 122.08,-17.8 38.66,-8.3 48.8,-23.1 39.16,-59.8 -23.67,-89.9 -63.91,-133.2 -157.87,-124 -156.48,15.3 -312.56,35.4 -469.27,47.4 -112.05,8.6 -224.85,7.7 -337.35,9.8 -12.76,0.3 -25.68,-7.3 -38.53,-11.3 z m 1229.06,6597.6 c -16.73,-13.9 -26.23,-22.2 -36.2,-30 -53.34,-41.4 -109.61,-79.5 -159.58,-124.6 -79.22,-71.6 -137.59,-157.6 -166.28,-262.8 -32.24,-118.3 -27.07,-237.8 -13.61,-356.8 26.38,-233.3 79.69,-461.8 126.72,-691.5 53.06,-259.1 102.69,-518.9 151.9,-778.8 29.64,-156.6 51.41,-314.8 84.28,-470.7 46.85,-222.1 98.98,-443.1 152.13,-663.8 28.96,-120.3 64.69,-239 97.35,-358.4 4.83,-17.6 7.63,-36.8 30.82,-40.9 23.75,19.3 7.7,40.3 3.22,57.9 -11.56,45.4 -29.37,89.2 -40.4,134.7 -50.4,207.9 -100.83,415.8 -148.25,624.3 -32.83,144.5 -63.12,289.6 -90.38,435.2 -49.02,261.8 -92.75,524.6 -142.7,786.2 -54.17,283.8 -116.18,566 -168.21,850.1 -23.9,130.5 -38.91,263.3 -18.99,397.2 13.62,91.5 46.95,173.3 105.65,244.9 76.22,92.9 173.08,161 273.72,223.6 138.77,86.2 282.03,165.3 418.63,254.8 128.69,84.2 251.36,177.7 376.27,267.7 10.09,7.3 17.04,18.9 25.45,28.6 -3.37,4.1 -6.73,8.2 -10.1,12.3 -13.5,-7.2 -28.27,-12.8 -40.32,-21.9 -220.45,-167.1 -455.53,-311.5 -693.15,-452.5 -52.3,-31 -97.74,-31.5 -148.41,-9 -23.95,10.7 -47.77,22.4 -69.71,36.6 -89.36,57.9 -112.09,136.8 -66.76,233.1 14.33,30.5 32.7,59.1 49.65,88.3 28.28,48.7 57.23,97 85.13,145.9 6.93,12.1 18.81,26.7 -11.19,44.6 -6.32,-6 -8.62,-15.4 -13.52,-23.2 -28.85,-46 -59.89,-90.6 -87.09,-137.5 -26.32,-45.4 -51.71,-91.7 -72.37,-139.8 -24.44,-56.9 -19.88,-114.4 16.34,-166.1 29.56,-42.2 68.67,-74.4 114.93,-97.4 24.99,-12.4 50.43,-24 85.03,-40.3 z m -1099.25,-38.3 c -34.28,-9.5 -29.96,-39.3 -33.8,-59.6 -10.8,-57.1 -17.91,-114.9 -24.63,-172.6 -27.96,-240.2 -57.72,-480.2 -81.97,-720.7 -18.99,-188.3 -32.19,-377.3 -45.46,-566.1 -13.01,-185.2 -23.87,-370.5 -33.82,-555.9 -8.94,-166.7 -15.62,-333.6 -22.79,-500.4 -4.28,-99.3 -8.15,-198.7 -11.19,-298.1 -4.3,-140.8 -7.86,-281.6 -11.37,-422.3 -2.71,-108.9 -6.87,-217.8 -6.68,-326.6 0.17,-105.2 -46.24,-184.8 -130.46,-240.8 -73.32,-48.7 -150.38,-92.4 -228.42,-133.4 -232.83,-122.1 -466.18,-243.3 -700.79,-361.9 -261.44,-132.2 -523.24,-263.8 -787.19,-390.8 -280.69,-135.2 -565.04,-262.6 -860.01,-364.1 -170.57,-58.8 -344.31,-107.9 -524.65,-122.5 -143.18,-11.6 -285.91,-3.8 -416.03,69.7 -134.14,75.8 -217.22,193.3 -270.49,334.4 -42.78,113.3 -64.78,231.7 -70.73,351.9 -6.77,136.8 -13.48,274.5 -6.48,411.1 8.33,162.5 27.28,324.9 48.73,486.4 43.52,327.5 121.04,649 180.9,973.6 47.95,260 88.37,521.5 129.09,782.8 49.65,318.6 96.05,637.8 144.21,956.6 2.69,17.9 8.68,35.2 14.65,58.7 89.19,-60.3 177.87,-26.3 270.59,-12.6 -3.04,-15.9 -2.67,-27.2 -7.26,-35.9 -47.49,-90 -63.56,-188.3 -73.47,-287.3 -17.36,-173.5 -28.42,-347.5 -46.72,-520.9 -19.72,-186.6 -55.04,-370.9 -93.28,-554.7 -28.24,-135.7 -49.47,-273 -72.24,-409.8 -4.14,-24.8 -0.59,-51 -0.59,-75.5 26.58,-6.1 31.18,8 33.29,23.9 5.18,39 7.91,78.5 15.12,117.1 29.94,160.3 60.18,320.6 92.2,480.6 33.91,169.4 59.12,339.8 73.96,512 14.01,162.4 28.34,324.8 45.12,487 9.91,95.8 30.29,189.5 91.42,268.2 10.92,14.1 24.86,28.8 40.68,35.6 250.37,106.4 501.01,212.2 752.16,316.9 209.51,87.2 420.6,170.8 629.41,259.6 148.71,63.3 290.76,140.2 425.98,229.3 13.48,8.9 28.01,16.1 46.87,26.9 14.34,-50.2 10.24,-94.5 5.44,-138.2 -36.21,-329.1 -113.8,-650.4 -191.1,-971.3 -92.3,-383.2 -191.15,-764.9 -286.68,-1147.3 -32.43,-129.8 -46.51,-262.1 -49.69,-395.7 -3.27,-137.1 -3.43,-274.3 -12.25,-411 -11.03,-170.9 -39.3,-339.1 -109.55,-497.6 -12.37,-28 -20.32,-57.9 -30.37,-87 30.54,-12.2 36.76,4.8 43.62,20 59.62,132.6 103.36,269.8 121.39,414.6 16.95,136.1 23.99,272.7 23.88,410 -0.21,260.2 31.11,516.1 108.7,765.8 28.37,91.3 48.67,185.2 70.91,278.3 8.18,34.3 22.81,60.4 52.29,82.3 150.47,111.8 271.4,252.8 388.51,397.8 49.48,61.2 103.44,118.9 156.92,176.7 67.74,73.3 149.77,127.4 245.98,152.4 139.78,36.2 239.9,121.1 313.91,239.9 99.34,159.3 194.49,321.3 293.71,480.7 49.53,79.6 100.92,158.4 157.15,233.3 82.04,109.3 193.6,183.4 317.22,237 230.73,99.9 464.08,193.8 694.96,293.4 132.46,57.2 262.22,120.6 393.15,181.3 6.75,3.1 13.84,6.1 19.63,10.6 148,115.4 297.12,229.5 443.35,347.1 133.02,107.1 262.42,218.6 394.49,326.8 28.88,23.7 61.99,42.3 93.91,62 8.72,5.4 20.23,6.3 36.42,11 2.53,-25.9 6.03,-47.5 6.51,-69.2 3.02,-137.7 -20.6,-272.9 -40.89,-408.2 -46.56,-310.8 -129.84,-613 -212.75,-915.3 -86.96,-317 -157.57,-637.5 -214.51,-961.3 -55.58,-316 -98.97,-633.5 -130.76,-952.6 -18.4,-184.7 -33.14,-369.7 -46.93,-554.7 -7.11,-95.4 -9.27,-191.2 -12.36,-286.8 -4.44,-137 -9.16,-274 -11.12,-411.1 -3.54,-248.1 -5.38,-496.2 -7.45,-744.3 -1.74,-208.7 -1.95,-417.4 -4.37,-626.2 -2.81,-242.3 -7.06,-484.7 -11.14,-727 -3.39,-201 -6.94,-402 -11.4,-602.9 -2.79,-125.8 -4.72,-251.6 -11.76,-377.2 -13.01,-232.1 -24.77,-464.4 -45.58,-695.9 -36.48,-405.9 -97.22,-808.3 -201.46,-1203 -79.62,-301.5 -169.87,-599.8 -294.35,-886.3 -38.04,-87.5 -83.4,-172.4 -131.93,-254.7 -113.28,-192.1 -282.23,-309.7 -501.24,-348.9 -110.39,-19.8 -222.76,-31.9 -334.77,-38.3 -138.41,-8 -277.69,-1.6 -415.96,-10.9 -73.26,-4.9 -145.68,-1 -218.42,-1 -35.33,0 -71.18,4.6 -105.89,11.5 -98.87,19.9 -143.45,70.2 -142.71,172.1 0.6,82.3 4.76,165.6 18.73,246.5 45.73,264.8 119.16,523.3 192.13,781.6 136.75,483.9 277.03,966.8 414.7,1450.5 64.78,227.5 119.66,457.7 149.93,692.5 16.04,124.4 24.3,250.3 27.34,375.8 3.77,155.9 1.8,312.2 -3.83,468.1 -5.27,146 -18.63,291.7 -28.3,437.6 -5.33,80.5 -10.1,161 -15.64,241.4 -10.44,151.5 -22.3,302.9 -31.53,454.5 -6.39,104.8 -11.27,209.9 -13.41,314.9 -3.89,189.8 -7.4,379.6 -6.94,569.3 0.38,152.1 6.41,304.2 10.84,456.2 2.84,97.5 6.81,195.1 11.18,292.5 6.05,134.9 12.93,269.8 19.52,404.7 4.68,95.6 8.38,191.2 14.48,286.7 8.71,136.5 19.34,272.9 28.92,409.3 4.99,71.1 8.39,142.3 14.44,213.3 14.47,169.9 26.78,340.1 46.05,509.5 25.41,223.5 56.89,446.2 85.1,669.4 3.84,30.3 13.6,61.6 -2.23,95.2"
         style="fill:#4e68ec;fill-opacity:1;fill-rule:nonzero;stroke:none"
         transform="matrix(0.13333333,0,0,-0.13333333,0,2666.6667)" />
      <path
         id="path3"
         d="m 8704.45,2728.8 c 32.3,-25 42.95,-4 55.44,7.1 121.84,108.3 206.36,242.3 267.84,391.8 125.09,304.4 186.44,625 237.18,947.8 21.52,136.9 34.97,275.2 46.53,413.4 10.16,121.3 12.73,243.3 18.21,365 0.99,22.2 1.28,45 -23.1,59.2 -28.28,-14.1 -18.95,-39.3 -19.7,-59.8 -4.61,-125.6 -1.98,-251.9 -13.8,-376.8 -16.03,-169.7 -39.36,-338.8 -65.91,-507.2 -41.26,-261.6 -98.18,-519.9 -191.27,-768.7 -51.53,-137.8 -115.01,-269.6 -215.44,-379.7 -28.65,-31.4 -61.35,-59.1 -95.98,-92.1 z M 8466.77,1124.1 c 42.81,-11.6 39.75,15.5 41.32,34.2 7.57,89.6 14.54,179.2 20.37,268.9 8.75,134.7 16.88,269.3 24.35,404.1 7.57,136.6 14.4,273.2 20.85,409.9 5.74,121.8 9.24,243.7 16.05,365.4 8.47,151.5 19.61,302.8 29.03,454.3 5.82,93.5 9.09,187.3 16.16,280.7 12.55,166.2 27.06,332.3 40.87,498.4 12.57,151.3 25.08,302.5 37.98,453.7 18.3,214.6 37.13,429.2 55,643.8 1.41,16.8 -2.88,34.1 -4.52,51.2 -4.33,0.6 -8.66,1.1 -12.98,1.7 -5.72,-10.2 -14.85,-19.8 -16.5,-30.6 -4.49,-29.6 -5.86,-59.6 -8.42,-89.4 -12.94,-151.2 -25.41,-302.5 -38.91,-453.6 -16.67,-186.6 -35.31,-372.9 -51.01,-559.5 -14.29,-169.9 -26.18,-340.1 -38.44,-510.1 -14,-194.4 -28.9,-388.6 -40.33,-583.1 -10,-170.3 -15.82,-340.8 -23.31,-511.3 -1.73,-39.4 -1.97,-78.8 -4.21,-118.2 -9.58,-168.3 -19.15,-336.7 -29.73,-504.9 -6.23,-99.1 -14.75,-198 -21.48,-297.1 -4.68,-68.8 -8.07,-137.7 -12.14,-208.5 z M 7697.32,5159 c 143.34,-3.5 280.16,-6.7 416.96,-10.5 121.91,-3.3 243.78,-8.4 365.71,-10.9 229.07,-4.5 458.17,-7.7 687.25,-11.5 217.8,-3.7 435.59,-7.8 653.4,-11.2 189.66,-2.9 379.36,-5 569.06,-7.5 9.3,-0.2 18.5,-1.7 30.6,-2.9 2,-10.8 5,-21.3 5.8,-31.9 16.5,-237.5 28.3,-475.4 50.6,-712.3 20.1,-213.5 62.3,-423.2 152.2,-620.3 80.9,-177.3 196.6,-323.6 370.6,-418 101.8,-55.3 211.8,-85.2 325.5,-103.4 216.1,-34.6 434,-33 651.6,-28.9 151.7,2.8 303.3,13.8 454.9,21.8 134.8,7 269.5,14.9 404.2,22.6 48.3,2.8 96.5,6 145.8,9.1 180,-746.2 302.3,-1498 467.4,-2243.2 -2644.4,0 -5285.63,0 -7934.23,0 96.38,684.6 207.83,1362.3 357.19,2035.4 66.96,2.2 130.62,2.9 194.07,6.8 145.82,9.1 291.94,16 437.19,31.1 119.79,12.3 236,43.6 343.79,100.3 141.08,74.3 240.76,189.5 320.24,324.6 91.83,156 157.85,323.6 217.99,493.5 105.9,299.3 194.25,603.6 259.37,914.5 15.38,73.4 27.96,147.4 42.32,221.1 2.1,10.8 6.9,21.1 10.49,31.7"
         style="fill:#160b42;fill-opacity:1;fill-rule:nonzero;stroke:none"
         transform="matrix(0.13333333,0,0,-0.13333333,0,2666.6667)" />
      <path
         id="path4"
         d="m 12443.3,8647.9 c 5.8,-1.8 11.6,-3.5 17.4,-5.3 25.1,15.7 27.3,45.2 35,70.5 189.3,623 378.2,1246 567,1869.1 168.7,556.8 337.3,1113.6 505.9,1670.4 19,62.8 37.5,125.9 57.6,188.4 6.9,21.5 11.5,39.1 -20.9,49.5 -6.7,-14.9 -14.2,-27.5 -18.3,-41 -119.5,-393.2 -238.8,-786.4 -357.8,-1179.7 -140.8,-465.2 -281.2,-930.4 -421.9,-1395.6 -117.9,-389.8 -236,-779.5 -353.6,-1169.3 -5.6,-18.4 -7,-38 -10.4,-57 z M 9960.27,8231.3 c 0,68.8 0,128.1 0,193.1 94.13,8.3 183.23,16.3 272.23,23.9 160.5,13.8 321,27.8 481.6,40.8 121.4,9.8 243,17.5 364.4,27.5 203.5,16.6 406.9,34.8 610.4,51.5 119.6,9.9 239.2,18.3 358.9,27.3 52.3,3.9 104.7,6.6 156.9,11.8 47.2,4.8 80.3,30.5 94.3,76.3 64.8,211.8 131.6,423 192.5,635.9 130.2,454.5 254.6,910.7 386.2,1364.7 101.9,351.5 208.6,701.7 318.2,1050.8 81.5,259.5 169.9,516.8 258,774.1 18.7,54.6 47.2,106.2 74.9,157.2 30.3,55.5 77.3,80 143.5,79.9 1367.2,-1.2 2734.4,-0.9 4101.6,-0.9 11.2,0 22.6,0.4 33.8,-0.2 115.7,-6.1 154.4,-76.1 124,-186.6 -29.8,-108.5 -70.6,-214 -106.8,-320.7 -164.2,-483.4 -328.4,-966.8 -492.7,-1450.2 -143.9,-422.8 -287.8,-845.7 -432,-1268.4 -94,-275.4 -188.6,-550.6 -282.8,-825.9 -3.7,-10.6 -9,-21.2 -10,-32.1 -4.2,-49 -37.1,-66.1 -79.2,-70.9 -39,-4.3 -78.4,-5.7 -117.6,-7.8 -164.8,-9 -329.5,-17.6 -494.3,-26.4 -142.3,-7.6 -284.6,-15.2 -426.8,-22.9 -140.4,-7.5 -280.8,-15 -421.2,-22.6 -138.5,-7.5 -277,-15 -415.5,-22.6 -136.6,-7.4 -273.3,-15 -409.9,-22.5 -140.4,-7.6 -280.8,-15 -421.2,-22.6 -138.5,-7.5 -277,-15 -415.5,-22.6 -138.5,-7.5 -277.1,-14.5 -415.6,-22.8 -84.1,-5 -168.1,-17.3 -252.1,-16.6 -121.2,1 -241.3,-14.1 -362.1,-18.1 -211.7,-7.1 -423.1,-21.5 -634.6,-32.9 -136.7,-7.4 -273.3,-14.5 -409.9,-22.5 -157.2,-9.4 -314.2,-20.2 -471.3,-29.3 -106.7,-6.2 -213.6,-10.2 -320.3,-15.7 -129.2,-6.6 -258.3,-13.8 -387.5,-20.7 -63.3,-3.4 -126.6,-6.8 -192.53,-10.3"
         style="fill:#dbdbdb;fill-opacity:1;fill-rule:nonzero;stroke:none"
         transform="matrix(0.13333333,0,0,-0.13333333,0,2666.6667)" />
      <path
         id="path5"
         d="m 8962.71,5814.3 c 5.84,17.3 14.71,33.5 16.46,50.4 12.38,119.1 25.02,238.3 34.19,357.7 9.32,121.3 14.7,242.9 21.97,364.4 1.14,19 0.97,36.8 -25.02,47.6 -4.92,-14.4 -11.46,-25.8 -12.41,-37.7 -4.8,-59.7 -7.73,-119.6 -12.09,-179.3 -6.81,-93.4 -13.49,-186.7 -21.61,-280 -7.95,-91.3 -17.96,-182.5 -26.25,-273.9 -1.57,-17.2 -7.6,-38.1 24.76,-49.2 z m 41.01,7638 c 15.48,-46.2 31.46,-86.2 42.07,-127.5 12.54,-48.8 28.63,-98.8 28.66,-148.3 0.07,-108.7 -2.3,-218.2 -15.65,-325.9 -33.64,-271.5 -73.25,-542.3 -111.69,-813.2 -58.71,-413.9 -116.95,-827.9 -178.23,-1241.4 -47.83,-322.7 -100.84,-644.7 -149.99,-967.3 -59.59,-391.1 -118.77,-782.3 -175.81,-1173.7 -42.15,-289.4 -82.45,-579 -119.46,-869 -9.69,-75.9 -9.22,-154.1 -4.24,-230.6 7.24,-111.4 63,-204.7 135.54,-285.1 110.68,-122.6 225.52,-241.6 341.85,-359 36.46,-36.7 82.02,-65.3 125.9,-93.7 65.59,-42.6 133.94,-38.1 194.8,7.6 58.31,43.8 114.84,91.3 165.7,143.4 114.02,116.9 223.38,238.3 335.88,356.7 82.79,87.1 132,186.1 121.24,309.5 -4.56,52.3 -7.7,104.7 -11.24,157 -11.38,168.4 -25.53,336.6 -33.18,505.1 -8.51,187.5 -15,375.3 -15.23,563 -0.28,242.3 6.42,484.6 10.3,726.9 3.64,227.3 8.67,454.6 10.75,681.8 0.87,95.7 -4.13,191.4 -6.7,287.1 -3.63,135.1 -5,270.3 -11.82,405.3 -9.83,194.7 -20.21,389.5 -36.77,583.7 -17.51,205.3 -39.65,410.4 -65.14,614.9 -24.8,199 -55.15,397.3 -85.5,595.6 -17.59,114.9 -40.17,229 -60.17,343.6 -11.43,65.4 -4.23,126.5 39.17,180.8 38.66,48.4 74.04,99.4 112.33,148.1 30.6,38.9 35.18,38.8 68.73,4.5 57.81,-59.1 115.15,-118.7 172.49,-178.2 68.05,-70.7 146.12,-87.3 235.39,-44.2 11.8,5.6 23.6,11.5 35.1,17.9 142.8,78.9 245.7,201.7 351.4,321.3 4.9,5.5 0.8,19 0.9,28.8 -9.8,-2.2 -22.9,-1.2 -28.9,-7.3 -22.5,-22.5 -42.1,-47.9 -63.9,-71.1 -83.6,-89.2 -167.2,-178.7 -276.1,-238.5 -85.1,-46.8 -165.67,-47.5 -239.16,30 -143.57,151.3 -292.02,298.1 -438.95,446.2 -48.87,49.3 -65.42,52.2 -120.22,9.5 -72.4,-56.5 -140.62,-118.2 -212.14,-175.9 -67.03,-54 -132.71,-110.8 -205.01,-156.8 -78.82,-50.3 -145.65,-33.1 -201.06,41.4 -24.57,33 -44.07,69.7 -66.82,104.1 -7.52,11.4 -18.03,20.8 -27.18,31.1 -3.87,-1.8 -7.74,-3.7 -11.61,-5.5 2.85,-12.9 2.64,-27.6 9.09,-38.3 25.17,-41.6 49.76,-84.2 79.52,-122.5 62.62,-80.8 132.04,-96.1 222.42,-50.2 43.08,21.8 83.47,49 132.64,78.3 z M 10317.5,8204.7 c 0,-26.7 0,-47.3 0,-67.9 0,-146.7 -1.4,-293.4 0.4,-440.2 2.2,-182.1 5.7,-364.3 11.4,-546.4 5.7,-183.8 14.1,-367.5 22.3,-551.2 6.8,-153.6 14.9,-307.2 22.6,-460.8 7.3,-146.1 14.7,-292.2 22.5,-438.3 1.5,-29.6 4.9,-59.2 7.9,-94.7 -53.3,-4.9 -103.2,-13.7 -153,-13.2 -148.3,1.5 -296.64,4.1 -444.72,11.3 -159.06,7.7 -317.77,22.3 -476.78,31.4 -67.48,3.8 -135.34,1.1 -203.02,1.8 -17.52,0.1 -35.01,2 -54.19,13.8 10.2,5.8 19.74,13.8 30.68,17.1 201.31,61.1 403.76,116.8 615.35,128.9 26.14,1.5 52.36,4.1 78.13,8.5 13.4,2.3 25.9,9.8 39.87,15.4 -11.71,32.5 -33.42,26 -53.37,24.6 -258.39,-17 -506.56,-81.1 -752.26,-159.2 -159.2,-50.6 -320.59,-94.6 -487.72,-111.3 -126.78,-12.7 -253.43,-24.9 -381.38,-10.8 -83.76,9.3 -168.39,10.5 -252.53,16.6 -46.49,3.3 -92.79,9.3 -140.88,14.2 -16.38,37.8 -4.19,75.2 -1.42,111.5 9.3,121.4 23.33,242.5 31.23,364 9.98,153.5 16.22,307.2 23.11,460.8 4.63,103.1 8.98,206.3 11.04,309.4 4.67,233 7.52,465.9 11.71,698.9 3.25,180.3 8.86,360.5 10.82,540.8 3.54,327.1 5.09,654.2 7.59,981.3 1.19,156 1.72,312.1 4.28,468.1 2.58,157.7 4.62,315.5 11.79,473.1 8.26,181.6 17.89,363.4 34.17,544.5 20.46,227.6 46.8,454.8 73.25,681.9 35.61,305.7 87.71,608.8 149.33,910.4 57.14,279.6 130.49,555.1 206.28,830.1 74.88,271.6 140.05,545.5 173.68,825.5 16.27,135.5 19.46,272.7 28.15,409.1 1.27,20 0.17,40.2 0.17,74.5 27.33,-19.4 45.37,-30.5 61.52,-43.9 144.94,-120 297.02,-229.4 461.7,-321.3 139.39,-77.7 286.2,-100.1 444.71,-86.7 312.92,26.4 619.01,93.7 927.91,143.9 20,3.3 40.3,4.2 63.1,6.4 5.1,-12.7 11.9,-22.5 12.7,-32.7 11.8,-159.2 20,-318.4 5.9,-478 -4.8,-54.2 -2.9,-108.9 -4.8,-163.4 -3.5,-99.4 -6.2,-198.8 -11.8,-298.1 -8.5,-153.5 -19.7,-306.8 -28.8,-460.2 -6.2,-106.8 -10.6,-213.7 -16,-320.5 -6.6,-133 -13.7,-265.9 -20.2,-398.9 -4.9,-101.2 -8.9,-202.4 -13.6,-303.6 -6.6,-140.5 -13.6,-280.9 -19.9,-421.4 -5,-110.6 -9.1,-221.2 -14,-331.8 -5.8,-127.4 -12.3,-254.7 -18,-382.1 -2.1,-48.8 -3,-97.7 -4.4,-146.5 -3.8,-135.1 -6.9,-270.3 -11.6,-405.4 -6.7,-195 -14.8,-389.9 -21.9,-585 -3.1,-84.4 -6.2,-168.8 -7.5,-253.2 -2.2,-148.5 -2.9,-297.1 -4.3,-445.6 -0.6,-55.2 -0.8,-54.3 -56.6,-58.4 -95.3,-6.9 -190.5,-15.6 -285.78,-22.3 -30.93,-2.1 -50.73,-14.8 -52.5,-46.6 -3.55,-63.4 -8.36,-127 -7.09,-190.4 0.72,-36.3 13.53,-44.7 51.74,-42.9 80.43,3.7 160.73,10.4 241.13,14.8 31.3,1.7 62.8,0.3 101.9,0.3"
         style="fill:#ffffff;fill-opacity:1;fill-rule:nonzero;stroke:none"
         transform="matrix(0.13333333,0,0,-0.13333333,0,2666.6667)" />
      <path
         id="path6"
         d="m 11349.7,13604.6 c -3.8,-0.2 -7.6,-0.5 -11.4,-0.7 -1.9,-13 -6.5,-26.3 -5.1,-38.9 3.1,-27.8 7.8,-55.7 14.4,-82.9 13.7,-56.3 28.5,-112.3 43.9,-168.2 22.4,-81.1 15.1,-104.6 -50.3,-154.8 -1.5,-1.1 -2.7,-2.6 -4.3,-3.6 -63.3,-39.8 -126.9,-79.2 -189.8,-119.7 -18.6,-12 -46.8,-17.2 -44.3,-54.9 14.3,3.2 27.1,3.6 37.3,8.9 31.5,16.3 63,33.1 92.8,52.4 51.8,33.5 104.4,66.4 152.8,104.6 49.1,38.7 69,87.9 48.8,154.1 -27.7,91.1 -46.8,184.8 -70.2,277.2 -2.4,9.4 -9.6,17.7 -14.6,26.5 z m 215.2,-4766.2 c 30.8,18.6 32,43.6 35.2,67.3 20.1,150.5 41,300.9 59.9,451.5 26.5,210.1 51.4,420.4 77.1,630.6 20.7,169.2 41.7,338.4 62.3,507.7 15.8,130.2 31.5,260.4 46.2,390.8 1.7,14.5 9.6,34.8 -18.8,42.2 -4,-7.1 -11,-14.4 -12,-22.3 -86.8,-680.4 -173.2,-1360.8 -259.2,-2041.3 -0.8,-6.2 4.4,-13.1 9.3,-26.5 z m -168.5,2266.9 c 0.5,-6.4 0.9,-12.8 1.3,-19.3 19.4,-2.4 38.9,-7.2 58.3,-6.9 91.8,1.5 183.7,4 275.5,7 148,4.8 296.1,9.2 444.1,16 38.9,1.8 77.6,10.8 116.2,17.7 54.8,9.7 85,44.1 94.7,97.9 4.3,23.9 9.4,47.8 12.6,72 9.5,70.5 21.9,140.8 26.2,211.7 3.7,60.9 -24.9,95.8 -86.2,105.6 -55.1,8.8 -111.9,11.7 -167.8,9.7 -108.4,-4 -216.7,-14.2 -325.1,-20.2 -91.7,-5.1 -183.5,-7.9 -275.3,-11.6 -17.9,-0.8 -37.5,1.7 -46.7,-30.1 20.1,-2.2 37.6,-6.3 55,-5.7 86.1,3 172.2,7 258.3,11 97.4,4.5 194.7,10.9 292,13.6 65.6,1.9 131.6,1.7 197,-3.2 46.4,-3.5 60.8,-23.9 63.1,-70.2 0.6,-13 0.2,-26.4 -1.9,-39.2 -12.4,-73.9 -27.8,-147.4 -37.4,-221.6 -8.1,-62.3 -24.1,-79.2 -90.3,-86.2 -94.8,-9.9 -190.2,-15.9 -285.6,-19.4 -155.5,-5.7 -311.2,-8.1 -466.8,-12.1 -24.4,-0.6 -48.9,-1.4 -73,-4.3 -13,-1.6 -25.5,-7.9 -38.2,-12.2 z m 1369.6,-243.9 c 6.8,0.3 13.6,0.7 20.4,1 2.6,23 7.2,46 7.6,69.1 4.2,268.6 4.5,537.3 12.6,805.8 6.1,204.1 18.5,408.3 34.6,612 13,162.3 34.8,324 54.7,485.8 11,89.3 25.7,178.1 40.2,266.9 3.1,18.8 4.3,32.5 -23.5,42 -5.7,-18.2 -13.1,-34.4 -15.9,-51.5 -18.2,-111 -39.6,-221.6 -52,-333.3 -25,-225.2 -49.1,-450.7 -65.6,-676.7 -13.9,-190.7 -16.7,-382.3 -23.9,-573.5 -1.4,-37.5 -0.4,-75.2 -0.4,-112.8 0.1,-165.3 0,-330.6 0.8,-496 0,-12.9 6.7,-25.9 10.4,-38.8 z M 10651.1,8526.1 c 18.5,94 34.8,178.5 51.8,262.8 117.2,579.9 269.5,1150.8 440.3,1716.9 135,447.4 254.9,899 368.7,1352.2 42.5,169.2 92.6,336.4 139.1,504.6 3.5,12.7 5.5,25.7 9,38.4 27.9,100.2 -6.3,179.7 -80.7,246.8 -88.8,79.9 -192.1,137.8 -295.7,194.9 -202.2,111.4 -409.8,213 -601.5,342.9 -11.4,7.7 -24.6,21.4 -42.3,-5.9 14.4,-12.8 28.3,-29.6 45.9,-40.1 117.6,-70.3 235.4,-140.4 354.4,-208.4 130.3,-74.4 262.7,-145.3 392.8,-220.3 40.4,-23.2 76.9,-53.7 113.8,-82.5 77.3,-60.5 95,-141.3 72.9,-232.5 -15.5,-63.8 -36,-126.4 -52.8,-189.9 -65.7,-248.5 -128.3,-497.9 -196.8,-745.7 -106.5,-385.1 -215,-769.7 -326.2,-1153.5 -130.4,-450.6 -252.4,-903.3 -347.3,-1363 -25.8,-124.9 -51.4,-249.8 -77,-374.8 -10.4,-50.7 -11.7,-51.5 -60.9,-54.4 -63.2,-3.8 -126.4,-8.4 -197.5,-13.2 0,37.4 -0.8,68.7 0.2,99.9 1.5,45 5.7,89.8 6.5,134.8 2.1,118.4 2.1,236.8 4.5,355.2 2.8,129.5 7.2,258.9 11.2,388.4 3.5,112.5 7.2,225.1 11.3,337.6 7.3,202.5 14.7,405 22.5,607.5 7.3,189.3 14.7,378.7 22.7,568 7,164.9 14.7,329.7 22.5,494.6 7.3,155.5 14.7,310.9 22.7,466.4 7,138.6 14.6,277.1 22.4,415.6 10.1,177.8 21.2,355.6 31,533.4 5.5,99.3 9.5,198.6 14,297.9 6.2,136.7 14.2,273.4 17.6,410.2 1.8,71.2 -4.7,142.5 -7.5,213.7 -3.6,89.6 -7.2,179.2 -11.2,277.7 24.7,-7.7 46.2,-11.1 64.5,-20.6 83.3,-43.2 166,-87.5 248.3,-132.7 102.3,-56.1 206.9,-105.8 321.7,-131.9 62.5,-14.2 113.5,-45.9 147.3,-104.1 10,-17.1 32.8,-32.8 52.4,-37.3 179.1,-41.2 358.6,-80.7 538.5,-118.6 154.4,-32.6 311.7,-42 468.4,-56.7 136,-12.7 271.8,-30.6 406.3,-54.5 127.1,-22.6 225.2,-97.6 307.2,-195.8 82.8,-99.3 138.6,-213.9 191.1,-330.5 47,-104.4 94.7,-208.4 125.4,-319.3 7.4,-26.6 7,-49.4 -2.2,-76.1 -78.3,-227.1 -158.6,-453.7 -231,-682.7 -109.5,-347.1 -215.2,-695.5 -318.9,-1044.4 -102.6,-345.2 -202,-691.4 -300.4,-1037.9 -65,-229.3 -124.3,-460.1 -189.1,-689.4 -20.9,-73.7 -53,-144.2 -77,-217.1 -14.4,-44.1 -21.9,-90.6 -34.6,-135.3 -16.5,-57.9 -26,-65.3 -86.1,-70.1 -149.4,-12.1 -298.8,-23.3 -448.2,-35.2 -233.5,-18.7 -466.9,-37.3 -700.3,-56.7 -108.2,-8.9 -216.3,-19.6 -324.4,-29.1 -16.5,-1.4 -33.1,-0.2 -59.3,-0.2"
         style="fill:#4e68ec;fill-opacity:1;fill-rule:nonzero;stroke:none"
         transform="matrix(0.13333333,0,0,-0.13333333,0,2666.6667)" />
      <path
         id="path7"
         d="m 11527,8102.8 c -23.8,-20.1 -22.8,-46.6 -24.5,-72 -9.2,-132.8 -17.9,-265.6 -27.2,-398.4 -9.5,-134.6 -20.4,-269.1 -29,-403.7 -6.6,-103 -9.2,-206.2 -16.3,-309.1 -12,-173.8 -26.2,-347.4 -39.3,-521.2 -1.3,-17 0.8,-33.3 27.8,-44 5.3,19.6 12.3,35.8 13.9,52.6 5.2,56 8.5,112.2 12.5,168.3 9.7,138.3 20,276.5 28.8,414.9 6.5,101 10.2,202.3 16.7,303.4 8.8,138.3 19.1,276.6 28.7,414.9 7.3,106.5 15.2,213 21.3,319.6 1.3,24.4 10.7,51.9 -13.4,74.7 z m 838.5,-1928 c 0.1,5.5 0.2,10.9 0.2,16.4 -27.2,16.3 -58.1,17.2 -89.5,16.8 -225.3,-2.5 -450.7,-4.2 -676.1,-7.5 -180.1,-2.7 -360.3,-6.9 -540.4,-11.7 -31.7,-0.8 -63.5,-5.9 -94.7,-12.2 -68.5,-13.9 -93,-49.6 -79.7,-117.1 7.7,-38.5 18.2,-76.6 29.8,-114.2 17.7,-57.1 45.8,-78.9 107.2,-80.7 33.5,-1.1 67.2,4 100.8,6.4 173.8,12.3 347.6,26 521.5,36.5 144.1,8.7 288.3,14.6 432.6,19.7 93.8,3.3 187.8,2.6 281.7,4.5 24.3,0.5 48.8,3.3 66.1,31.6 -11.1,4.7 -20.2,11.6 -29.4,11.7 -22.5,0.3 -44.9,-3.2 -67.4,-3.9 -195,-6.4 -390,-10.8 -584.9,-19.2 -131,-5.6 -261.8,-17.1 -392.7,-25.3 -110.3,-6.9 -220.7,-14 -331.1,-18.8 -44.5,-2 -52.4,4.9 -65.7,45.6 -11.1,33.8 -20.7,68.3 -28,103 -12.4,59.5 0.9,77.5 63.4,85.1 46.4,5.6 93.2,10.5 139.9,11.3 259.1,4.7 518.3,8.2 777.4,11.7 137.2,1.8 274.4,2.6 411.5,4.4 15.9,0.2 31.7,3.9 47.5,5.9 z M 10365,8210.5 c 61.5,3.9 120.9,7.6 186.9,11.7 -2,-23 -2.7,-40.9 -5.2,-58.5 -16.1,-113.2 -33,-226.3 -48.6,-339.6 -2.6,-19.1 -0.3,-38.8 -0.3,-61 25.8,2.3 29.5,15.3 31.9,30.9 18.4,120.4 37.1,240.8 56,361.2 3.1,20.2 7.2,40.2 12.3,68 57.4,3.6 114.7,7.8 172.1,10.9 125.4,6.8 250.8,13.1 376.3,19.6 93.6,4.8 187.3,9 280.9,14.6 157.1,9.3 314.1,20.3 471.3,29.1 116.1,6.5 232.4,10 348.5,16 121.7,6.3 243.3,14.2 364.9,20.9 22.1,1.2 44.3,0.1 70.1,0.1 0,-49.9 2.8,-96.2 -0.5,-142 -9.4,-130.9 -21.2,-261.5 -32.2,-392.3 -13.2,-154.9 -26.9,-309.8 -39.7,-464.8 -9.9,-119.6 -19.5,-239.3 -27.8,-359 -7.3,-104.7 -13.5,-209.5 -18.5,-314.3 -9.4,-195.7 29.5,-384.3 79.9,-572 60.3,-224.7 119.2,-449.9 172.7,-676.2 50,-211.7 91.4,-425.4 137.8,-638 61.4,-280.8 142.6,-556.3 222.8,-832.2 39.7,-136.9 75.1,-275.1 109.6,-413.5 13.1,-52.3 17.4,-106.4 10.9,-161.1 -4.7,-39.4 -26.3,-63.2 -62.3,-70.1 -42,-8.1 -85.2,-12.3 -128,-13.9 -131.3,-5.1 -262.8,-5.8 -394,-12.5 -174,-8.7 -347.7,-25.5 -521.8,-31.6 -200.8,-7 -402.1,-12 -602.9,-6.9 -153.2,3.9 -306.3,20.7 -453.8,70.9 -174.8,59.3 -306.5,169.5 -403.7,324.4 -94.4,150.4 -144.1,317 -177.7,489.2 -33.6,171.4 -51.1,344.9 -60.7,519.2 -8,146 -14.8,292.2 -22.7,438.2 -5.4,100.6 -12,201.2 -17.5,301.8 -2.3,43.1 -3,86.3 -4.7,129.5 -3.8,99.4 -6.5,198.8 -11.8,298.1 -8.9,166.6 -20.2,333.1 -29,499.7 -6.5,123.6 -10.5,247.4 -15.9,371.2 -5.9,133 -12.6,266 -18.1,399 -2.5,60.1 -3.7,120.2 -4.2,180.3 -2.6,310.2 -4.9,620.3 -7.2,930.5 0,5.5 1.7,10.9 3.9,24.5"
         style="fill:#4e68ec;fill-opacity:1;fill-rule:nonzero;stroke:none"
         transform="matrix(0.13333333,0,0,-0.13333333,0,2666.6667)" />
      <path
         id="path8"
         d="m 11046.8,16907.9 c -35.6,-10 -71.8,-18.4 -106.4,-31 -8.7,-3.2 -16.7,-20.1 -16.8,-30.8 -0.1,-6.7 14.1,-16.9 23.5,-19.5 14,-3.9 29.5,-4.2 44.2,-3.1 96.9,7.2 194.2,23.6 285.6,-29.1 8.5,-5 33,1.7 38.1,10.2 11.8,19.7 -7.1,29.4 -22.6,36.6 -77.3,36 -158,58.5 -245.6,66.7 z m -2639.04,-557.5 c -18.76,-9.4 -36.99,-17.8 -54.51,-27.5 -61.46,-33.9 -77.47,-92.2 -40.08,-151.9 15.84,-25.2 35.31,-48.3 54.12,-71.6 9.79,-12.1 21.84,-21.9 42.89,-2.4 -8.79,13.9 -17.78,29.1 -27.74,43.7 -10.55,15.4 -23.38,29.4 -32.84,45.4 -28.08,47.6 -16.06,86 33.28,109.8 8.42,4.1 17.63,6.5 25.96,10.7 44.17,22.4 53,47.9 20.2,83.3 -28.71,30.9 -62.84,59.7 -99.99,79.1 -60.1,31.3 -121.38,15.3 -168.16,-35.1 -6.05,-6.5 -7.97,-16.9 -17.06,-37.2 40.73,20.4 68.52,38.9 99.09,48.5 33.46,10.5 66.64,-1.3 96.49,-19.3 29,-17.4 56.35,-36.5 68.35,-75.5 z m 2241.64,104.2 c 22.5,-24.3 34.2,-16 45.8,-4.4 29.1,29.3 60.2,56.8 87.1,88 66.9,77.7 70.3,171 9.8,252.9 -16.6,22.5 -35.4,44.6 -57.3,61.5 -77.5,59.9 -118.6,137.9 -126.4,235 -1,12.1 -9.2,23.7 -14.1,35.5 -5.1,-0.9 -10.1,-1.8 -15.2,-2.7 -1.1,-15.2 -4.2,-30.5 -3.1,-45.6 7.6,-105.7 58.9,-188.8 139.8,-253.1 94.4,-75 105.6,-212.1 11.8,-286.9 -28.5,-22.8 -51.5,-52.5 -78.2,-80.2 z m -994.1,364.8 c 19.24,5.9 38.72,10.5 57.15,17.8 76.33,30.1 157.16,35.6 237.24,37.8 53.61,1.6 107.71,-10.7 161.51,-16.8 25.9,-2.9 53.2,-9.9 68.4,23.8 -13.6,45.3 -54.8,52.7 -91.9,61.5 -62.6,14.8 -126.09,13.3 -189.75,3.2 -76.44,-12.1 -149.59,-34.1 -219.67,-66.6 -24.19,-11.2 -41.26,-26.4 -22.98,-60.7 z m 1648.4,434.7 c 11.8,7.8 34.6,15.1 42.2,30.1 6.2,12.1 -0.7,38.1 -11,49.8 -16.8,19 -39,37.5 -62.5,45.4 -98.9,33.5 -198.5,65.6 -299.5,92.2 -30.3,8.1 -66.3,-0.6 -98.8,-6.4 -28.2,-5 -45,-27.4 -50,-54.9 -5.5,-29.5 12.7,-50.5 34.5,-65.9 14.8,-10.5 33.1,-17.7 50.9,-21.9 27.2,-6.4 55.2,-10.4 83,-12.8 95.1,-8 189.7,-18.6 281.2,-47.9 7.1,-2.3 14.5,-3.7 30,-7.7 z m -1736.04,-4.7 c 3.93,0.6 11.32,1.9 18.76,2.8 165.28,19.7 330.61,39 495.78,59.5 29.5,3.6 59.9,8.3 87.2,19.1 45.6,17.9 55.8,52.6 31.5,95.6 -21.5,37.8 -55.4,59.7 -96.6,72.1 -48.9,14.8 -96.7,5.4 -143.88,-6.3 -103.48,-25.8 -206.85,-52.2 -309.6,-80.8 -42.95,-11.9 -85.98,-26.4 -125.69,-46.3 -34.41,-17.3 -50.01,-55.2 -42.14,-78.5 8.44,-25.2 38.11,-38.8 84.67,-37.2 z m 286.24,-1388.1 c -0.96,-33.6 12.89,-95.5 36.36,-155.5 40.71,-104 110.24,-186.2 193.64,-258.5 96.1,-83.3 200.3,-151.6 322.7,-189.8 97.1,-30.3 195.1,-38.6 293.8,-11.1 160.7,44.9 249,158.7 291.5,314 35.3,129.3 39.6,262.9 52.8,395.1 3.2,31.4 3.8,64.2 -1.6,95.1 -10.7,61.2 -38.3,85 -100.9,94.9 -20.3,3.2 -40.8,5.8 -61.3,6.7 -133.2,5.8 -265.3,19.3 -396,46.6 -100.9,21 -201.5,44.1 -303.3,59.8 -102.8,15.8 -188.09,-21.8 -249.8,-106.2 -56.37,-77 -76.63,-165.8 -77.9,-291.1 z m -1088.57,-243.7 c -27.36,-27.8 -26.16,-48.1 -21.78,-71.4 27.63,-147 78.87,-285.7 146.67,-418.3 106.07,-207.6 242.98,-392.8 413.14,-552 151.52,-141.7 321.48,-258.9 502.84,-359.4 149.79,-83.1 304.5,-154.6 471.2,-197.2 12.7,-3.2 25.1,-7.8 37.3,-12.5 2.5,-1 3.7,-5.5 9.4,-14.6 -65.8,-12.6 -128.8,-26.2 -192.4,-36.5 -162.76,-26.5 -325.52,-53.1 -488.68,-76.8 -109.8,-15.9 -221.07,-22.4 -331.34,-10.9 -124.42,13 -230.65,76 -334.46,140.9 -135.48,84.8 -264.34,178.7 -387.59,280.6 -28.69,23.8 -37.82,47.2 -32.51,82 43.42,284.9 48.05,571.6 40.34,859.1 -4.22,157.5 -0.75,315.2 -0.75,470 23.53,11.6 39.5,19.5 57.06,28.2 -14.59,41.4 -52.68,34.6 -76.04,33.4 -33.2,-1.6 -60.29,6.8 -84.23,23.8 -96.35,68.4 -193.35,136.2 -285.83,209.6 -66.68,52.9 -115.52,122.9 -150,201.3 -66.65,151.4 -26.98,286.1 69.8,409.5 20.48,26.1 46.23,49.5 73.39,68.7 71.81,50.8 141.34,45.6 203.4,-16.7 40.91,-41 77.43,-86.6 114.52,-131.3 35.92,-43.3 69.24,-88.8 105.38,-131.9 13.9,-16.6 30.79,-37.3 56.28,-27.1 26.6,10.7 30.44,37 28.38,62.2 -4.11,50.4 -12.2,100.5 -14.58,151 -2.91,61.7 -5.8,123.9 -0.99,185.4 4.42,56.4 26.78,109.3 60,156 56.72,79.8 69.98,167.2 53.7,262.5 -22.03,129 -20.54,256.7 19.03,383.9 24.43,78.5 37.56,160.6 55.78,241.1 33.34,147.3 125.08,239.1 267.36,284.7 134.98,43.3 274.01,64.9 414.59,71.3 179.98,8.1 360.42,14.4 540.49,11 255,-4.8 508.5,-28.6 759.1,-81.4 113.6,-23.9 196.4,-86.8 268.7,-171.9 98.4,-116 150.6,-254.2 196,-396.1 42.1,-131.5 63.8,-266.1 57.6,-404.6 -8.9,-198.5 21.1,-392.9 60.7,-586.5 38.1,-185.8 61.8,-373.6 67.4,-563.4 2.8,-97.5 9,-195.2 6.4,-292.6 -5.9,-217.6 -46.8,-428.1 -139.6,-626.9 -144.2,-309.1 -388.8,-492.3 -713.8,-579 -103.2,-27.6 -204.1,-19.1 -305.2,3.3 -262.9,58.4 -517.71,141.9 -760.39,259.5 -225.09,109 -428.97,247.5 -593.05,439.6 -96.26,112.7 -170.71,237.5 -217.11,378.6 -6.15,18.7 -15.06,36.6 -25.62,61.8"
         style="fill:#de9575;fill-opacity:1;fill-rule:nonzero;stroke:none"
         transform="matrix(0.13333333,0,0,-0.13333333,0,2666.6667)" />
      <path
         id="path9"
         d="m 6622.56,15371.3 c -8.47,10.3 -14.65,15.3 -17.5,21.8 -38.18,86.6 -108.46,140.5 -192.81,171.6 -137.13,50.6 -276.94,94 -416.09,139 -210.71,68.1 -421.78,135.1 -632.83,202.2 -15.47,4.9 -33.65,24.5 -50.66,-11.1 18.08,-8.1 35.18,-17.7 53.45,-23.8 202.75,-67.6 405.59,-134.9 608.59,-201.7 140.61,-46.4 282.32,-89.5 421.93,-138.6 64.26,-22.7 121.53,-61 157.36,-122.3 50.01,-85.5 48.69,-176.2 15.74,-266 -33.2,-90.4 -92.21,-162.7 -171.76,-217.8 -21.55,-14.9 -41.67,-32 -63.8,-45.9 -11.41,-7.2 -25.8,-9.6 -51.49,-18.6 10.28,26.9 15.31,41.7 21.51,56 48.93,112.7 31.11,205.2 -53.65,294.3 -66.33,69.7 -148.26,114.8 -234.56,152.6 -160.43,70.3 -330.32,111.6 -498.21,159 -101.06,28.5 -201.74,58.4 -302.78,87 -16.74,4.7 -39.62,20.6 -49.86,-2.9 -11.2,-25.7 18.63,-26.6 32.79,-35.7 45.1,-28.8 96,-35.3 147.97,-44.4 77.29,-13.5 152.49,-39.1 228.46,-60.1 150.13,-41.3 300.79,-81.3 443.23,-145.7 82.33,-37.3 161.72,-79.8 220.78,-151.5 61.65,-74.8 70.31,-158.4 26.59,-241.7 -29.27,-55.8 -68.38,-108 -110.38,-155.3 -113.35,-127.7 -226.21,-256.4 -359.56,-364.4 -73.72,-59.7 -153.42,-108.7 -250.18,-121.3 -101.62,-13.1 -190.48,17.5 -262.6,88.1 -60.45,59.2 -64.56,134.8 -34.72,209.2 41.39,103.2 116.69,178 214.8,229.5 33.44,17.6 68.16,30.5 105.47,11.8 12.63,33.5 -13.4,35.5 -25.23,46.5 -59.38,55.4 -76.95,58.3 -131.12,-3.2 -63.06,-71.7 -122.39,-147.4 -175.99,-226.3 -24.22,-35.7 -39.11,-82.6 -43.54,-125.9 -10.77,-105.3 53.03,-172.8 135.5,-222.4 109.44,-65.8 224.94,-67 338.13,-10.6 55.01,27.4 105.79,63.9 156.46,99.2 19.31,13.4 36.88,21.9 60.84,23.7 40.93,3 81.47,11.3 120.87,17.2 29.29,-37.2 55.96,-78.2 89.58,-112.3 85.71,-87 191.11,-114.6 309.95,-90.4 41.53,8.5 82.31,20.7 123.43,31.1 2.08,-3.3 4.16,-6.6 6.24,-10 -20.64,-23 -40.78,-46.4 -62.02,-68.8 -64.62,-68.2 -127.09,-138.6 -195.11,-203.2 -116.68,-110.8 -261.61,-156.3 -418.73,-172.5 -124.76,-12.9 -250.1,-24.3 -373.35,-46.5 -172.38,-31.1 -299.39,-132.6 -391.85,-279.2 -74.64,-118.4 -124.02,-248.2 -172.2,-378.6 -3.26,-8.8 -7.25,-17.5 -9.12,-26.7 -7.78,-37.8 -30.65,-54.9 -69.07,-59.2 -202.91,-22.9 -405.66,-47.2 -608.43,-71.3 -179.44,-21.4 -359.69,-20.9 -539.79,-17.4 -79.64,1.6 -159.08,13.8 -242.3,21.5 3.75,16.1 4.99,25.2 7.96,33.7 119.29,340.2 255.07,673.8 400.44,1003.6 164.37,372.9 306.5,754.5 442.29,1138.6 70.63,199.9 146.4,398.1 226.65,594.3 51.93,126.9 119,247.1 208.16,353.1 81.98,97.6 178.06,172.4 309.08,189.7 87.07,11.4 172.59,-1.4 255.96,-24.7 291.09,-81.3 581.89,-163.7 872.25,-247.5 120.83,-34.9 241.49,-71.9 351.82,-134.2 140.89,-79.5 172.16,-160.1 154.34,-289.4 -7.85,-56.9 -28.17,-112.2 -43.33,-168.1 -1.24,-4.5 -6.4,-8 -14,-17.1"
         style="fill:#de9575;fill-opacity:1;fill-rule:nonzero;stroke:none"
         transform="matrix(0.13333333,0,0,-0.13333333,0,2666.6667)" />
      <path
         id="path10"
         d="m 11007,18423 c -14.5,-22.7 1.2,-38.1 9.1,-53.3 34.7,-66 55.2,-134.2 44.5,-210 -1.4,-10.1 8,-21.7 12.4,-32.7 7.8,8.6 17.2,16.3 22.7,26.1 4.4,7.7 5.1,18 5.5,27.2 3.5,89.7 -31.4,167 -79.2,239.8 -1.4,2.1 -6.8,1.4 -15,2.9 z m -2372.76,-880.6 c -118.59,-2.8 -425.39,-185.7 -471.56,-278.2 15.47,1.9 28.28,0 36.9,5.2 19.16,11.4 36.29,26.3 54.14,40 108.76,83.1 218.34,164.7 352.34,204.6 8.16,2.4 13.76,13.4 28.18,28.4 z m -113.18,297.9 c -1.98,7 -3.96,14.1 -5.93,21.2 -20.61,-3.2 -41.8,-4.3 -61.72,-9.9 -132.45,-37.4 -248.07,-105.6 -352.54,-194.1 -100.74,-85.4 -177.02,-188.2 -224.4,-311.9 -7.58,-19.8 -19.86,-39.6 2.43,-71 10.34,21.1 18.17,34.4 23.58,48.6 48.04,126 128.12,228 231.29,313.6 96.64,80.2 203.46,140.5 323.98,176.6 21.83,6.6 42.24,17.8 63.31,26.9 z m 2002.24,523.1 c 3.9,4 7.8,8 11.8,12.1 -9.3,12.6 -16.5,27.9 -28.3,37.4 -54.2,43.1 -105.9,91.2 -165.4,125.5 -239.9,138.7 -499.95,200.3 -776.35,178.1 -85.22,-6.8 -168.89,-33.5 -253.06,-52.1 -15.57,-3.4 -34.26,-7.2 -33.05,-37.8 22.1,2.3 43.85,2 64.24,7.1 96.47,24.3 193.32,46.7 293.24,48.5 130.16,2.2 258.22,-15.8 383.48,-50.6 175.3,-48.8 340.8,-116.9 471.9,-250 8.2,-8.3 20.9,-12.2 31.5,-18.2 z m 879,-877.3 c -33,2.6 -29.3,27.5 -35.1,42.7 -26.1,68.3 -46.5,138.9 -75.2,206 -47,110.3 -122.2,200.4 -205.4,286.6 -73.3,75.9 -166.4,99.7 -261,117.8 -134.1,25.6 -269.9,43.5 -405.6,59.7 -197.9,23.5 -397,27 -595.9,22.5 -219.49,-5 -438.72,-17 -651.24,-79.7 -41.18,-12.1 -81.79,-28.1 -120.25,-47.2 -103.46,-51.4 -171.21,-135.7 -199.43,-246.2 -36.65,-143.4 -70.28,-288 -95.65,-433.7 -10.96,-63 1.44,-130.2 4.45,-195.4 1.12,-24.3 6.29,-48.3 8.64,-72.5 7.11,-73.3 -4.81,-141.5 -48.05,-203.7 -71.33,-102.6 -85.22,-217.6 -70.12,-338.9 7.15,-57.4 10.26,-115.3 15.09,-171.7 -26.45,-11.7 -35.27,6.7 -44.78,18.9 -32.42,41.4 -62.1,85 -95.36,125.7 -32.03,39.2 -63.9,79.6 -101.67,112.8 -86.1,75.8 -161.98,81.6 -253.27,11 -114.18,-88.4 -179.6,-207.7 -188.53,-351.4 -4.54,-73.1 22.53,-143.8 59.38,-208.5 56.77,-99.7 134.55,-180.4 226.96,-247 60.91,-44 123.01,-86.3 185.92,-127.3 32.77,-21.4 68.46,-38.2 102.22,-56.8 0,-201.3 0,-403.6 0,-607.5 -29.28,-0.8 -30.09,21.1 -35.11,33.9 -23.36,59.3 -42.45,120.3 -66.3,179.5 -39.78,98.6 -106.03,181 -167.94,265.9 -163.37,224 -300.84,462.6 -403.32,720.7 -95.27,239.9 -124.04,489.8 -110.37,746 2,37.4 5.24,74.7 6.13,112.1 0.24,10.2 -3.12,23.1 -9.72,30.3 -83.15,90.5 -115.26,202.2 -121.98,319.6 -14.44,252.3 68.49,473.4 236.6,660.5 74.84,83.2 170.84,141.7 272.93,186 166.83,72.6 336.1,139.5 504.03,209.5 195.73,81.6 390.47,165.6 586.86,245.6 162.04,66 328.8,116.6 504.42,131.4 243.26,20.3 474.96,-21.6 693.16,-132.4 73.7,-37.3 147.8,-74.5 218.1,-117.5 138,-84.5 286.1,-139 444.7,-169.1 105.4,-20 208.5,-49.5 299.2,-110.1 163.2,-108.9 173.9,-207.2 149.9,-351.6 -20.8,-125.1 -62.9,-246.8 -96.7,-369.7 -18.9,-68.5 -40,-136.5 -60.7,-206.8"
         style="fill:#160f3a;fill-opacity:1;fill-rule:nonzero;stroke:none"
         transform="matrix(0.13333333,0,0,-0.13333333,0,2666.6667)" />
      <path
         id="path11"
         d="m 14430.6,7768.9 c 14.3,18.3 25.4,30.3 34,43.8 42.2,66.7 81.8,135 126.1,200.2 32.6,47.8 67.5,94.9 107.7,136.4 66.8,68.9 133.9,136.6 181.5,221.4 27.3,48.4 70.3,78.4 126.5,83.4 80.2,7.1 160.6,13 241.1,16.3 25.5,1.1 52.3,-4.8 77.1,-12.2 49.4,-14.7 62.4,-42.6 40,-89.7 -16,-33.7 -36.8,-65.4 -57.9,-96.4 -114.3,-168.5 -251,-317.8 -396.1,-459.8 -21.4,-20.9 -21,-21.4 -23.2,-51.2 20.4,-10.5 30.7,5.8 42,17 132,131 261.7,264.4 367.5,418.2 55.5,80.9 132.2,132 219.9,168.9 91.6,38.6 184,75 276.3,111.8 63.3,25.3 128.7,39.1 197.4,39.9 50.5,0.7 100.9,9 151.3,8.3 63.5,-0.8 127,-5.9 190.2,-12 27.5,-2.6 37.7,-18.2 27,-43.4 -12.2,-28.8 -28.6,-57.4 -49.3,-80.7 -57.5,-64.5 -134.8,-100.7 -211.3,-136.5 -188.6,-88.1 -377.4,-176.1 -567.2,-261.6 -100.4,-45.3 -187.8,-109.2 -274.2,-175.8 -99.7,-76.7 -198.3,-155.2 -302.4,-225.5 -172.3,-116.3 -358.2,-205.7 -564.3,-244 -266.6,-49.6 -517.3,-6.1 -737.9,155.4 -87.8,64.3 -176,132.8 -240.9,224 -5.1,7.3 -10.2,14.7 -18,25.9 54.9,23.4 91.4,-47.1 148.9,-19.6 -11.5,11.5 -18.3,22 -27.9,27.3 -23,12.6 -47.1,23.3 -71.2,33.8 -97.9,42.4 -171.5,113 -232.5,198.7 -53.3,74.9 -106.9,149.6 -160.9,224.1 -44.4,61.2 -19.4,119.8 55.8,128.1 24.2,2.7 48.7,2.7 73.1,3.7 88.9,3.5 163.7,-25.6 212,-102.7 57,-91 141.5,-142 237.8,-180 78.5,-31 155.9,-64.9 233.6,-97.8 51.4,-21.8 85.6,-16.9 118.6,26.8 41.8,55.4 79.3,114.1 118.1,171.6 83.9,124.5 194,213.6 341.9,249.6 41.6,10.1 84.9,13 127.6,18.7 36.4,4.8 72.9,8.8 107.1,12.9 31.2,-50.5 33.6,-97.1 19.3,-146.6 -23.3,-80.4 -65.7,-151 -109.3,-221.3 -51.4,-82.9 -102.9,-165.8 -154,-248.9 -9.4,-15.2 -22.2,-30.6 -0.9,-60.5"
         style="fill:#de9575;fill-opacity:1;fill-rule:nonzero;stroke:none"
         transform="matrix(0.13333333,0,0,-0.13333333,0,2666.6667)" />
      <path
         id="path12"
         d="m 12726.2,8340.3 c 46.4,2.6 83.8,6.9 120.9,5.7 16.9,-0.5 37.6,-7.6 49.4,-19.1 28,-27.3 51.8,-58.8 77.1,-88.8 3.6,-4.3 4.7,-12.4 8.8,-14.1 53.6,-22.1 43.7,-72.4 50.8,-114.4 30,-175.8 62.5,-350.9 126.5,-518.4 121.3,-317.8 343.6,-536.5 655.9,-666.5 218.9,-91.2 447.9,-125.3 683.1,-111.7 205.1,11.9 398.1,70.4 577.8,171.3 15,8.4 31.8,13.8 47.8,20.7 2.2,-3 4.5,-6 6.8,-9 -4.4,-9.1 -7.5,-19 -13.2,-27.2 -229.9,-329.6 -547.5,-522 -938.6,-599.2 -108.7,-21.4 -218.4,-31.6 -329.1,-39.3 -151.2,-10.6 -299.7,1.8 -446.9,32.1 -194.3,40.1 -369.3,125.4 -528.5,242 -77,56.5 -147.4,121.8 -222.6,181 -35.9,28.2 -41.6,62.7 -37.8,104.6 12.2,134.4 22.8,268.8 33.5,403.3 12.9,162.6 24.5,325.2 38,487.7 12.5,151.2 27.3,302.3 39.9,453.5 2.8,33.4 0.4,67.3 0.4,105.8"
         style="fill:#4e68ec;fill-opacity:1;fill-rule:nonzero;stroke:none"
         transform="matrix(0.13333333,0,0,-0.13333333,0,2666.6667)" />
      <path
         id="path13"
         d="m 13093.6,8096.1 c 11.2,-16.2 21.6,-33.1 33.7,-48.6 50.9,-64.8 102.9,-128.8 153.2,-194.1 19.2,-25 34.1,-53.2 52.1,-79.3 90.4,-131.3 204.4,-239.6 331.4,-334.7 67.6,-50.6 137.8,-98 204.2,-150.1 75.2,-59 150,-118.9 220.5,-183.3 56.1,-51.3 114.4,-71 183.2,-34.2 56.1,30 110.6,63.4 164.5,97.3 138.3,86.9 273.9,178.1 414.3,261.4 157.8,93.6 302.7,201.4 429.2,335 46.1,48.6 101.1,89.6 155.1,129.7 37.4,27.7 42.9,24.9 91.6,14.2 12.8,-61.4 0.5,-121.8 -15.5,-181.5 -46.6,-173.7 -127.2,-332.5 -217.6,-486.7 -85,-145 -219.5,-227.2 -369.7,-289.4 -192.5,-79.8 -392.7,-108.3 -600.2,-98 -193.5,9.5 -378.6,51 -554.3,132.8 -314,146.2 -512.5,391.1 -608.6,720.6 -30.4,104.3 -52,211.2 -76.6,317.2 -4.9,21.2 -5.1,43.5 -7.4,65.3 5.6,2.1 11.3,4.2 16.9,6.4"
         style="fill:#ffffff;fill-opacity:1;fill-rule:nonzero;stroke:none"
         transform="matrix(0.13333333,0,0,-0.13333333,0,2666.6667)" />
      <path
         id="path14"
         d="m 4877.94,12973.8 c -28.03,-83.1 -52.51,-159.2 -80.12,-234.2 -5.15,-14 -21.13,-26.5 -35.12,-34.3 -124.29,-69.5 -247.25,-141.8 -374.44,-205.6 -281.95,-141.4 -581.69,-240.8 -871.86,-362.9 -138.25,-58.2 -276.02,-117.5 -414.11,-176.1 -14.6,-6.2 -29.89,-10.8 -59.28,-21.3 13.65,38.8 22.07,64.4 31.63,89.5 75.25,198.1 152.32,395.5 225.31,594.4 28.35,77.2 47.53,157.9 71.16,236.9 3.73,12.5 8.93,24.5 13.9,37.9 166.7,-8.3 332.36,-24 497.88,-22.5 164.43,1.4 329.13,16.1 492.95,32.6 165.1,16.6 329.27,42.6 502.1,65.6"
         style="fill:#ffffff;fill-opacity:1;fill-rule:nonzero;stroke:none"
         transform="matrix(0.13333333,0,0,-0.13333333,0,2666.6667)" />
      <path
         id="path15"
         d="m 10421.6,5148.3 c -346.8,3.5 -680.35,7 -1021.25,10.5 11.88,146.5 23.15,285.4 34.69,427.8 324.72,-12.6 642.36,-60 969.76,-24.9 5.7,-140.1 11,-271.9 16.8,-413.4"
         style="fill:#160b42;fill-opacity:1;fill-rule:nonzero;stroke:none"
         transform="matrix(0.13333333,0,0,-0.13333333,0,2666.6667)" />
      <path
         id="path16"
         d="m 6328.85,14254.5 c -105.28,-4.7 -186.47,39.5 -246.52,122 -58.71,80.6 -64.47,163.7 3.72,242 94.3,108.2 203.38,199.7 333.73,262.5 78.98,38.1 167.6,41.3 243.51,-46.6 79.74,-92.3 121.78,-197.6 108.95,-320.2 -4.35,-41.5 -10.84,-87.4 -64.07,-101.5 -8.2,-2.2 -14.78,-11.1 -21.69,-17.4 -101.57,-92.4 -223.45,-132.4 -357.63,-140.8"
         style="fill:#de9575;fill-opacity:1;fill-rule:nonzero;stroke:none"
         transform="matrix(0.13333333,0,0,-0.13333333,0,2666.6667)" />
      <path
         id="path17"
         d="m 9399.4,5589.5 c -13.53,-146.6 -26.21,-284 -39.55,-428.4 -271.79,5.7 -542.6,9.3 -816.11,19.6 0,32.4 -2.36,58.4 0.44,83.8 8.8,79.9 20.14,159.6 29.18,239.6 2.79,24.7 14.55,35.3 38.44,39.8 73.59,14 146.61,30.9 220.25,44.5 34.83,6.5 70.59,11.2 105.9,11 112.52,-0.6 225.03,-3.7 337.53,-6.1 39.03,-0.8 78.05,-2.4 123.92,-3.8"
         style="fill:#160b42;fill-opacity:1;fill-rule:nonzero;stroke:none"
         transform="matrix(0.13333333,0,0,-0.13333333,0,2666.6667)" />
      <path
         id="path18"
         d="m 7702.49,5197.9 c 16.82,121.1 32.92,237.1 50.01,360.1 130.79,-12.3 259.91,-29.7 389.54,-35.2 130.18,-5.6 260.87,0.8 397.06,2 -14.28,-110.1 -29.01,-223.6 -44.53,-343.2 -260.78,0.1 -522.1,6.8 -792.08,16.3"
         style="fill:#160b42;fill-opacity:1;fill-rule:nonzero;stroke:none"
         transform="matrix(0.13333333,0,0,-0.13333333,0,2666.6667)" />
      <path
         id="path19"
         d="m 8351.79,7662.7 c 10.29,92.1 21.23,209.7 37,326.7 27.32,202.5 57.52,404.6 86.72,606.9 32.41,224.5 64.2,449.2 97.81,673.5 38.06,254.1 77.38,507.9 116.99,761.7 43.08,276.1 88.43,551.7 130.32,827.9 33.45,220.6 63.39,441.8 94.54,662.7 40.3,285.9 80.98,571.7 120.12,857.7 27.71,202.4 55.36,404.9 78.81,607.9 15.25,132 6.38,262.7 -49.32,386.5 -4.59,10.2 -6.92,21.4 -10.81,32 -19.23,52.1 -15.38,91.6 35.11,131.6 71.8,56.8 133.39,126.3 211.68,176.1 35.31,22.5 47.69,24.5 74.14,-0.7 62.53,-59.7 124.61,-119.9 185.91,-180.8 30.19,-30 29.95,-38 4.7,-71.9 -42.59,-57.3 -86.21,-113.7 -128.29,-171.3 -43.15,-59.1 -54.73,-121.9 -40.74,-196.5 68.75,-366.8 126.79,-735.4 164.95,-1106.8 20.3,-197.5 39.04,-395.3 56.17,-593.1 20.72,-239.3 33.31,-479 34.46,-719.4 0.99,-208.5 6.76,-417.1 6.18,-625.6 -0.53,-185.9 -8.06,-371.8 -10.35,-557.7 -3.46,-280 -9.15,-560.1 -5.99,-840 2.05,-181.7 18.29,-363.2 27.94,-544.8 9.15,-172.3 17.64,-344.6 27.18,-516.9 4.07,-73.5 -19.38,-137.2 -66.99,-191.8 -53.04,-60.8 -107,-120.9 -162.23,-179.7 -83.57,-89 -167.61,-177.6 -253.47,-264.4 -32.84,-33.1 -69.74,-62.9 -107.41,-90.6 -59.48,-43.8 -123.35,-45.3 -183.21,-2.4 -51.72,37 -102.78,76.3 -148,120.8 -117.73,115.9 -233.91,233.4 -333,366.5 -64.41,86.5 -89.17,184.6 -90.92,315.9"
         style="fill:#160b42;fill-opacity:1;fill-rule:nonzero;stroke:none"
         transform="matrix(0.13333333,0,0,-0.13333333,0,2666.6667)" />
      <path
         id="path20"
         d="m 11013.2,15969.3 c -21.1,-138.8 -35.4,-279 -65.4,-415.8 -28.5,-130.6 -108.5,-225.7 -242.3,-264.8 -75.1,-21.9 -151.8,-22.4 -228.6,-8.3 -135.3,24.7 -247.9,94.1 -351.9,179.9 -77.4,63.9 -145.01,136.6 -186.76,229.5 -53.08,118.1 -59.52,239.8 -17.24,362 44.97,129.9 146.6,190.7 281.7,166.8 108.8,-19.2 216,-48.1 324.9,-66.8 88.4,-15.1 178.4,-22 267.7,-31.3 49.9,-5.2 100.1,-7.1 150,-12.2 32.9,-3.3 52.9,-22.9 57.7,-59.2 3.5,-25.8 0.7,-52.4 0.7,-78.7 3.2,-0.4 6.3,-0.8 9.5,-1.1"
         style="fill:#848484;fill-opacity:1;fill-rule:nonzero;stroke:none"
         transform="matrix(0.13333333,0,0,-0.13333333,0,2666.6667)" />
      <path
         id="path21"
         d="m 14657.6,10561.4 c -59.2,-365.6 189.3,-662.1 554.9,-662.1 365.7,0 710.1,296.5 769.2,662.1 59.2,365.6 -189.2,662.1 -554.9,662.1 -365.6,0 -710,-296.5 -769.2,-662.1"
         style="fill:#bdbdbd;fill-opacity:1;fill-rule:nonzero;stroke:none"
         transform="matrix(0.13333333,0,0,-0.13333333,0,2666.6667)" />
      <path
         id="path22"
         d="m 7399,12669.7 c -38.95,21.6 -76.73,38.7 -110.28,62 -102.87,71.2 -130.11,167 -78.26,280.5 22.54,49.4 52.21,95.5 80.06,142.3 20.13,33.8 42.57,66.2 64.04,99.2 11.07,17 20.55,41.3 46.77,25.4 25.39,-15.3 10.63,-36.8 0.74,-54.2 -29.7,-52.3 -61.71,-103.2 -90.91,-155.8 -20.89,-37.6 -41.72,-75.7 -57.13,-115.7 -20.15,-52.3 -6.02,-100.2 32.47,-140.1 47.24,-49 106.56,-77 172.12,-90.2 15.97,-3.2 36.89,3.7 51.92,12.3 244.99,140.1 485.18,287.7 710.12,458.9 11.91,9.1 23.93,20.2 37.65,23.9 10.01,2.7 25.74,-2.1 33.42,-9.4 4.51,-4.3 1.79,-22.7 -3.88,-29.8 -10.33,-12.9 -25.02,-22.5 -38.34,-32.9 -200.52,-156.5 -413.5,-294.1 -633.81,-421 -82.99,-47.8 -162.33,-101.9 -243.33,-153.2 -1.58,-1 -2.95,-2.3 -4.53,-3.4 -224.03,-146.6 -304.1,-354.7 -273.85,-616.6 27.22,-235.9 73.95,-467.7 124.5,-699 75.85,-347.1 138.3,-696.6 199.62,-1046.5 41.16,-234.9 95.08,-467.7 148.85,-700.1 44.01,-190.2 96.23,-378.6 144.78,-567.8 2.32,-9 7.5,-18.8 5.66,-27 -2.19,-9.8 -9.19,-24.1 -16.52,-25.7 -10.38,-2.4 -27.93,1.4 -33.55,9 -10.74,14.7 -17.33,33.3 -21.99,51.3 -41.04,158.2 -84.43,315.8 -121.02,475 -56.79,247.2 -112.4,494.7 -161.75,743.5 -46.79,235.8 -82.11,474 -127.59,710.2 -43.33,225 -94.56,448.6 -139.85,673.3 -31.19,154.8 -59.73,310.3 -63.92,468.8 -1.49,56.2 -0.44,113 6.2,168.8 17.02,143.1 87.63,258.6 195.19,351.7 52.36,45.3 108.39,86.4 166.4,132.3"
         style="fill:#2842c7;fill-opacity:1;fill-rule:nonzero;stroke:none"
         transform="matrix(0.13333333,0,0,-0.13333333,0,2666.6667)" />
      <path
         id="path23"
         d="m 6650.12,6244.4 c -149.18,0 -252.45,0 -355.72,0 -7.49,0 -16.75,-2.7 -22.1,0.7 -9.96,6.3 -24.07,15.9 -24.52,24.8 -0.48,9.4 10.83,23 20.56,28.6 10.68,6 25.43,6.7 38.4,6.7 112.59,0 225.3,2.5 337.74,-1.9 144.48,-5.5 288.82,-15.7 433.06,-26.1 38.96,-2.8 78.48,-10.1 115.68,-21.9 47.64,-15.1 66.64,-47.2 57.27,-95.8 -23.23,-120.7 -89.87,-194.6 -221.49,-180.3 -117.57,12.8 -234.62,31.4 -352.43,40.6 -142.24,11.1 -285.03,14.8 -427.59,21.8 -14.97,0.7 -30.79,-1.1 -44.61,3.3 -8.37,2.7 -18.68,14.9 -18.91,23.1 -0.23,8.5 9,21.2 17.26,24.8 11.34,5 25.64,4 38.69,4.1 242.71,2.1 484.36,-10.8 724.33,-49.5 33.19,-5.4 67.33,-7.1 100.99,-6.8 64.8,0.8 125.91,64.3 122.86,128.6 -0.52,10.9 -14.22,27.8 -24.75,30.5 -36.17,9.3 -73.42,16.5 -110.63,19.1 -149.89,10.6 -299.92,19.1 -404.09,25.6"
         style="fill:#2842c7;fill-opacity:1;fill-rule:nonzero;stroke:none"
         transform="matrix(0.13333333,0,0,-0.13333333,0,2666.6667)" />
      <path
         id="path24"
         d="m 5916.66,10381.8 c -5.51,-7.3 -12.29,-24.5 -20.08,-25 -12,-0.7 -28.33,7.1 -36.12,16.7 -8.81,10.9 -10.52,27.6 -14.8,42 -107.56,361.3 -252.73,706.4 -443.66,1031.9 -6.59,11.2 -14.5,23 -16.25,35.3 -1.3,9.1 3.74,24 10.79,28.2 7.12,4.2 22.05,1.4 30.15,-3.7 8.83,-5.6 14.43,-16.9 20.29,-26.5 204.59,-333.4 353.09,-691.1 462.04,-1066 2.6,-8.9 4.26,-18.2 7.64,-32.9"
         style="fill:#2842c7;fill-opacity:1;fill-rule:nonzero;stroke:none"
         transform="matrix(0.13333333,0,0,-0.13333333,0,2666.6667)" />
      <path
         id="path25"
         d="m 4519.47,9602.5 c 0,-39.4 0.69,-78.8 -0.31,-118.1 -0.45,-17.7 -5.97,-35 -28.39,-34.5 -21.15,0.5 -27.42,17 -30.05,34.6 -1.38,9.2 -0.95,18.7 -1.12,28.1 -3.16,180.2 -15.6,359.6 -51.39,536.8 -1.48,7.3 -5.56,16.2 -2.98,21.8 4.98,10.8 12.52,25.9 21.53,27.9 8.29,1.8 24.63,-8.8 29.01,-18 7.87,-16.5 10.02,-35.9 13.55,-54.3 26.94,-140.2 45.29,-281.4 50.15,-424.3"
         style="fill:#2842c7;fill-opacity:1;fill-rule:nonzero;stroke:none"
         transform="matrix(0.13333333,0,0,-0.13333333,0,2666.6667)" />
      <path
         id="path26"
         d="m 8511.76,1108 c -17.83,1.1 -33.84,2 -54.7,3.3 4.33,64.7 8.67,125.9 12.48,187.2 14.24,229 29.18,457.9 42.17,686.9 11.6,204.6 19.61,409.5 31.65,614.1 18.78,319.1 36.95,638.3 60.42,957 20.69,281.3 48.09,562 72.89,842.9 16.04,181.7 32.75,363.3 49.15,544.9 1.01,11.2 -1.3,24.2 3.74,33.2 5.61,9.9 17.81,22 27.25,22.1 7.98,0.1 21.45,-14.8 23.07,-24.6 3.3,-20 1.43,-41.2 -0.32,-61.8 -32.35,-380.3 -67.77,-760.3 -96.8,-1140.9 -30.04,-393.7 -56.07,-787.7 -79.83,-1181.8 -19.12,-317.2 -31.15,-634.9 -48.45,-952.2 -9.01,-165.2 -22.52,-330.2 -34.39,-495.2 -0.77,-10.8 -4.95,-21.3 -8.33,-35.1"
         style="fill:#000000;fill-opacity:1;fill-rule:nonzero;stroke:none"
         transform="matrix(0.13333333,0,0,-0.13333333,0,2666.6667)" />
      <path
         id="path27"
         d="m 9339.25,4714.5 c -22.33,-488.4 -93.8,-968.4 -240.9,-1435.7 -34.48,-109.5 -78.28,-215.4 -136.14,-315 -52.34,-90.1 -115.7,-171.3 -195.09,-239.3 -16.39,-14 -35.27,-38.2 -56.91,-13.7 -21.33,24.3 4.24,40.9 20.36,55.2 134.77,119.7 214.34,274.3 276.97,439.2 84.42,222.2 135.59,453.3 178.6,686.3 47.83,259 80.39,520 90.69,783.4 2.35,60.2 1.68,120.4 2.44,180.5 0.17,13.2 -3.1,27.9 1.79,39.1 5.1,11.6 18.12,19.8 27.68,29.5 9.51,-9.7 25.65,-18.4 27.26,-29.3 4.37,-29.5 2.85,-59.9 3.18,-90 0.33,-30 0.07,-60.1 0.07,-90.2"
         style="fill:#000000;fill-opacity:1;fill-rule:nonzero;stroke:none"
         transform="matrix(0.13333333,0,0,-0.13333333,0,2666.6667)" />
      <path
         id="path28"
         d="m 12432.8,8663.8 c 6,20.9 9.5,33.5 13.3,46.1 377.5,1245.8 755,2491.6 1132.6,3737.3 3.8,12.6 5.9,27.2 13.9,36.3 7.2,8.3 23.1,16.1 32.3,13.6 9,-2.5 19.9,-18 20.3,-28.1 0.5,-16.2 -6.1,-32.9 -11,-49 -245.6,-810.8 -491.2,-1621.6 -736.9,-2432.3 -130.2,-429.6 -260.5,-859.2 -390.8,-1288.9 -4.4,-14.3 -8.1,-29 -13.6,-42.9 -6.6,-16.7 -18.9,-33.3 -37.3,-25 -11.8,5.3 -17.3,24.3 -22.8,32.9"
         style="fill:#000000;fill-opacity:1;fill-rule:nonzero;stroke:none"
         transform="matrix(0.13333333,0,0,-0.13333333,0,2666.6667)" />
      <path
         id="path29"
         d="m 9345.41,13725.4 c -84.36,-47.9 -149.15,-107.7 -213.59,-168.3 -86.96,-81.8 -89.48,-81.9 -47.11,-193.2 43.19,-113.4 55.45,-230.2 43.06,-349.3 -16.12,-155.2 -33.79,-310.2 -55.41,-464.7 -76.58,-547.2 -153.17,-1094.4 -233.61,-1641 -55.53,-377.4 -118.14,-753.8 -176.22,-1130.8 -44.34,-287.9 -87.3,-576 -129.44,-864.2 -40.78,-279 -80.89,-558 -118.97,-837.3 -18.53,-135.9 -34.07,-272.3 -46.71,-408.8 -11.8,-127.5 25.93,-241.5 106.82,-341 15.42,-19 29.4,-39.3 46.22,-56.9 101.21,-106.1 201.55,-213.2 305.5,-316.6 36.88,-36.6 81.23,-66.9 125.52,-94.7 42.92,-27 90.42,-25.1 133.65,2.4 28.4,18.1 57.45,37.2 80.55,61.2 152.34,158.7 303.52,318.5 454.25,478.7 52.93,56.3 74.8,125.5 72.17,201.8 -2.67,77 -7.76,154 -12.51,230.9 -12.64,204.5 -28.57,408.9 -37.94,613.6 -19.82,432.4 -10.85,865.1 0.91,1297.5 15.31,562.6 13.7,1124.6 -35.78,1685.5 -23.95,271.4 -48.93,543.1 -84.87,813.1 -38.65,290.4 -90.31,579.1 -137.21,868.5 -9.13,56.3 -3.91,109.1 28.71,156.5 39.41,57.3 80.71,113.2 121.48,169.5 14.01,19.4 28.86,38.1 43.33,57.1 -4.58,-1.9 -9.16,-3.9 -13.74,-5.8 -72.55,78.3 -145.1,156.5 -219.06,236.3 z m -341.42,-286.3 c -22.16,-14.5 -35.55,-24.2 -49.74,-32.5 -29.16,-17 -57.53,-36.2 -88.4,-49.4 -84.82,-36.2 -160.37,-20.4 -217.95,50.9 -35.14,43.5 -61.63,94 -91.16,142 -10.54,17.1 -15.8,36.7 6.84,48.4 20.11,10.4 31,-5.3 40.06,-20.2 16.66,-27.2 31.81,-55.4 49.29,-82.1 74.26,-113.5 135.3,-128.3 247.78,-50.2 67.64,47 127.86,104.6 191.5,157.3 62.17,51.5 123.21,104.4 187.06,153.8 56.99,44 81.59,41.8 131.72,-8.4 138.16,-138.4 275.3,-277.9 412.85,-417 17.19,-17.4 34.25,-34.9 51.61,-52.1 46.95,-46.5 101.8,-56 160.35,-27.6 41.9,20.4 86.1,41.1 120.4,71.8 79.6,71.2 153.9,148.6 230.3,223.5 13.3,13.2 24.4,30.3 40.2,38.8 9.7,5.3 28.9,1.7 38.9,-5.1 5.5,-3.8 1.5,-22.8 -0.2,-34.6 -0.7,-4.8 -6.5,-9 -10.2,-13.2 -79.8,-92.8 -160.4,-185.3 -260.2,-257.4 -46.7,-33.7 -98,-63.6 -151.1,-85.8 -76.2,-31.7 -148.39,-16 -207.62,43.2 -57.21,57.2 -112.82,115.9 -168.58,174.5 -12.83,13.4 -23.4,29.1 -39.58,49.4 -65.88,-84.3 -130.47,-155.1 -172.24,-241.7 -11.37,-23.5 -14.74,-55.1 -10.68,-81.3 23.01,-148.6 52.83,-296.1 73.89,-444.9 38.96,-275.4 78.55,-550.9 108.38,-827.3 28.62,-265.4 50.01,-531.7 65.86,-798.2 21.02,-353.1 20.21,-706.8 15.26,-1060.5 -6.07,-434.4 -13.02,-868.9 -11.36,-1303.4 0.86,-225.4 18.87,-450.8 30.26,-676.1 7.12,-140.9 16.72,-281.5 24.51,-422.3 5.15,-93.1 -25.56,-174.3 -87.73,-242.7 -89.78,-98.8 -180.17,-197.1 -272.06,-294 -64.67,-68.2 -129.43,-136.8 -199.17,-199.6 -127.12,-114.5 -218.99,-117.2 -349.25,-8 -157.52,132 -297.55,281.8 -425.38,442.7 -81.8,103.1 -121.56,220.7 -111.18,351.9 10.21,129.2 23.13,258.4 40.4,386.8 37.57,279.4 77.73,558.5 118.58,837.4 46.02,314.3 93.07,628.4 141.29,942.4 57.64,375.2 119.03,749.9 175.04,1125.3 54.07,362.5 103.58,725.7 154.67,1088.6 38,269.9 77.24,539.6 112.07,809.9 15.59,120.8 35.98,243.1 14.93,365 -13.01,75.4 -38.12,148.7 -60.22,232"
         style="fill:#000000;fill-opacity:1;fill-rule:nonzero;stroke:none"
         transform="matrix(0.13333333,0,0,-0.13333333,0,2666.6667)" />
      <path
         id="path30"
         d="m 9046.73,6518 c -16.85,-205.9 -33.61,-411.8 -50.7,-617.7 -1.55,-18.7 -4.91,-37.2 -8.07,-55.7 -3.61,-21.1 -8.59,-44.1 -36.82,-39.4 -28.84,4.9 -23.66,30.1 -21.79,50 3.86,41.1 10.91,81.9 14.19,123.1 14.63,183.5 28.36,367.1 42.47,550.6 2.16,28.1 4.43,56.2 6.97,84.2 1.46,16.1 6.97,30.9 25.85,30.9 22.97,0.1 26.09,-17.6 26.32,-35.4 0.38,-30 0.1,-60.1 0.1,-90.1 0.5,-0.2 0.99,-0.3 1.48,-0.5"
         style="fill:#b8c4ff;fill-opacity:1;fill-rule:nonzero;stroke:none"
         transform="matrix(0.13333333,0,0,-0.13333333,0,2666.6667)" />
      <path
         id="path31"
         d="m 12742,11475.3 c 16.1,285.2 28.6,570.6 49.3,855.5 18.9,258.6 51.6,515.9 98.4,771.2 4.3,23.9 4.8,55.8 38.3,50.9 34.3,-5.1 24.1,-36.2 20.8,-59.6 -21.3,-146.9 -47.1,-293.2 -63.3,-440.6 -21.3,-194.2 -37.8,-389 -51.6,-583.9 -27.3,-386.5 -29.7,-773.9 -30.1,-1161.2 0,-22.2 8.8,-56.4 -27.9,-55.7 -32.2,0.5 -25,32.8 -25.1,53.5 -0.7,189.8 -0.4,379.7 -0.4,569.5 -2.8,0.2 -5.6,0.3 -8.4,0.4"
         style="fill:#2842c7;fill-opacity:1;fill-rule:nonzero;stroke:none"
         transform="matrix(0.13333333,0,0,-0.13333333,0,2666.6667)" />
      <path
         id="path32"
         d="m 11918.3,11550.8 c -116.7,-3.9 -231.3,-8.2 -345.8,-11.3 -21,-0.5 -48.2,-8.7 -55.9,22.7 -4.9,20 14.4,29.9 54.5,32.1 185.8,10.1 371.4,22 557.3,30.2 69.1,3 139.2,3.1 207.8,-5.1 77.1,-9.2 109.1,-49.3 104.4,-127 -4,-67.2 -17.1,-133.9 -27.1,-200.7 -4.4,-29.7 -11.3,-59 -16.3,-88.6 -8.6,-50.6 -39.7,-82.3 -87.9,-91 -62.7,-11.4 -126.3,-20.5 -189.9,-23.2 -214,-8.8 -428.2,-14.3 -642.4,-21 -16.9,-0.6 -33.9,-1.3 -50.7,-0.3 -19.8,1.3 -39.3,6.8 -38.4,31.6 0.8,24.6 21.2,28.3 40.4,29.9 16.9,1.4 33.9,1 50.8,1.6 232.9,7.7 465.8,15.1 698.6,23.7 35.5,1.3 71,7.2 106.1,13.5 29.8,5.3 50.2,21.2 55.4,54.8 12.4,79.8 28.9,159 40.2,238.9 10.8,75.9 -5.3,99.7 -80.5,101.1 -108.8,2.2 -217.7,-4.4 -326.5,-7.6 -18.8,-0.6 -37.5,-2.9 -54.1,-4.3"
         style="fill:#2842c7;fill-opacity:1;fill-rule:nonzero;stroke:none"
         transform="matrix(0.13333333,0,0,-0.13333333,0,2666.6667)" />
      <path
         id="path33"
         d="m 11859.6,10896.1 c -19.1,-160.3 -38,-320.7 -57.4,-481 -28.3,-234.8 -56.2,-469.8 -85.5,-704.5 -33.5,-268.3 -68.2,-536.4 -102.8,-804.5 -2.4,-18.6 -5.4,-37.9 -13.3,-54.4 -4.5,-9.3 -20.3,-19.5 -29.7,-18.3 -8.9,1.2 -20.5,15.5 -22.8,25.8 -3.1,14 0.9,29.7 2.8,44.6 29,217.7 59.3,435.2 86.8,653.1 30,238.5 56.7,477.3 86.1,715.8 23.3,190.1 48.4,379.9 72.8,569.9 2.7,20.5 6.1,40.8 9.1,61.3 2.9,19.3 6.7,40.1 32.6,36.2 24.8,-3.8 24.4,-24.5 21.3,-44"
         style="fill:#2842c7;fill-opacity:1;fill-rule:nonzero;stroke:none"
         transform="matrix(0.13333333,0,0,-0.13333333,0,2666.6667)" />
      <path
         id="path34"
         d="m 11461.4,13241.7 c -10.5,-22 -19.4,-51.2 -36.7,-73.9 -17.9,-23.4 -41.9,-43.5 -66.7,-59.8 -65.9,-43.1 -133.6,-83.4 -200.7,-124.6 -8,-4.9 -17.1,-11.8 -25.2,-11.4 -13.5,0.8 -26.6,6.8 -39.9,10.6 3.8,13 4.3,28.8 12.3,38.3 9,10.8 25,15.9 37.6,23.9 66.5,42.1 134.6,82.1 198.9,127.4 60.1,42.4 62.8,63 44.2,135 -20.7,79.7 -38.6,160.2 -57.6,240.4 -1.3,5.5 -2.8,11 -3.3,16.6 -1.6,20.5 -6.6,45.4 21.9,49.3 29.2,4.1 28.6,-21.8 33.5,-41.8 19.9,-81.9 40.7,-163.6 61.1,-245.3 6.4,-25.4 12.4,-50.8 20.6,-84.7"
         style="fill:#2842c7;fill-opacity:1;fill-rule:nonzero;stroke:none"
         transform="matrix(0.13333333,0,0,-0.13333333,0,2666.6667)" />
      <path
         id="path35"
         d="m 11697.2,6155.3 c -201.1,-5.1 -402.2,-9.7 -603.3,-15.6 -39.3,-1.2 -78.9,-5.4 -117.5,-12.5 -37.2,-6.9 -45.6,-18 -38.7,-55 7.7,-42.3 21.4,-83.5 33.1,-125 5.9,-21 21.6,-30 42.5,-30 33.8,0 67.7,-0.9 101.4,1.4 238.1,16.3 476.1,35.4 714.3,49.5 131.3,7.8 263,7.4 394.6,11.2 56.3,1.7 112.6,4.2 168.8,7.6 20,1.2 40.2,3 43.9,-21.9 3.4,-23.2 -14.7,-34.2 -34.2,-37.2 -31.4,-4.8 -63.2,-7.9 -95,-9.1 -249.8,-9.4 -499.7,-16.1 -749.3,-27.7 -146.4,-6.8 -292.3,-21.7 -438.6,-31.8 -39.2,-2.7 -78.9,-2.1 -118.3,-1 -44.3,1.2 -74.6,23.4 -87.1,66.7 -13.5,46.8 -28.4,93.5 -37.9,141.3 -12.4,62.2 14.2,103 75.1,118.1 30.8,7.7 63,13.1 94.7,13.6 426.6,5.9 853.3,10.9 1280,15.7 21.4,0.2 48.4,5.2 54.4,-26 3.8,-19.4 -15.1,-29.4 -56.9,-29.5 -208.6,-0.3 -417.3,-0.1 -626,-0.1 0,-0.9 0,-1.8 0,-2.7"
         style="fill:#2842c7;fill-opacity:1;fill-rule:nonzero;stroke:none"
         transform="matrix(0.13333333,0,0,-0.13333333,0,2666.6667)" />
      <path
         id="path36"
         d="m 11505.6,7275.6 c -19.8,-288.8 -39.5,-577.7 -59.7,-866.4 -1.1,-16.5 -3.7,-33.9 -10.7,-48.4 -3.4,-7.1 -18.5,-12.1 -28.1,-11.7 -6.5,0.3 -16.6,10.8 -17.9,18 -3.1,16.3 -3,33.6 -1.9,50.3 18.9,292.6 37.8,585.2 57.7,877.8 17.2,253.2 35.6,506.2 53.6,759.3 1,13.1 0.5,27.1 5.3,38.8 3.7,8.9 16.4,21.6 22.1,20.3 10.5,-2.6 22.2,-12.5 27.2,-22.5 4.5,-8.9 1.2,-22 0.5,-33.1 -16.6,-260.8 -33.3,-521.6 -49.9,-782.3 0.6,-0.1 1.2,-0.1 1.8,-0.1"
         style="fill:#2842c7;fill-opacity:1;fill-rule:nonzero;stroke:none"
         transform="matrix(0.13333333,0,0,-0.13333333,0,2666.6667)" />
      <path
         id="path37"
         d="m 11068.5,15993.6 c -21.2,-146.6 -33.4,-295.2 -65.8,-439.2 -45,-200.3 -176.9,-309.2 -377.2,-332.3 -85.6,-9.9 -169.4,4.3 -249,34.2 -174.9,65.9 -319.9,174.2 -429.31,325.5 -99.28,137.3 -124.84,291.1 -81.16,455.2 14.66,55.1 39.79,105.2 78.72,147.7 46.47,50.7 103.65,84.2 172.35,83.8 65.1,-0.5 131.3,-6.4 195,-19.6 139.6,-29.2 277.9,-65 420.6,-76.2 65.5,-5.2 131.2,-8.8 196.7,-14.1 88.3,-7.1 127,-47.4 131.5,-135.8 0.5,-9.4 0.1,-18.8 0.1,-28.2 2.5,-0.3 5,-0.7 7.5,-1"
         style="fill:#ffffff;fill-opacity:1;fill-rule:nonzero;stroke:none"
         transform="matrix(0.13333333,0,0,-0.13333333,0,2666.6667)" />
      <path
         id="path38"
         d="m 10049.3,17516.5 c 53,-1.7 101.4,-12.9 139.6,-51.8 27.6,-28.1 46.2,-61 33.4,-101.5 -11.9,-37.4 -46.1,-48.7 -79.9,-53.5 -68.7,-9.6 -138,-15 -206.92,-23.5 -111.71,-13.7 -223.2,-29.3 -334.99,-42.5 -27.52,-3.2 -56.66,-4 -83.55,1.4 -39.74,8.1 -56.38,40.8 -38.49,76.9 11.09,22.3 29.98,43.4 50.45,57.8 20.83,14.6 47.23,22.9 72.35,29.6 117.72,31.5 235.69,62.2 353.92,91.7 30.74,7.7 62.73,10.4 94.13,15.4"
         style="fill:#000000;fill-opacity:1;fill-rule:nonzero;stroke:none"
         transform="matrix(0.13333333,0,0,-0.13333333,0,2666.6667)" />
      <path
         id="path39"
         d="m 10847.2,16667.8 c 0.6,-45 -12.4,-86.5 -40.7,-120.2 -32.4,-38.7 -69,-73.9 -104.7,-109.7 -14.6,-14.7 -33,-20.6 -49.1,-2.5 -14.5,16.2 -5.3,32 7,44.8 23.3,24.3 48.1,47.3 71.5,71.7 73.6,76.8 74,161.9 0.9,238.9 -23.2,24.5 -48.5,47 -72.2,71 -59.4,60.4 -86,135.2 -92.9,217.8 -1.8,21.3 -7.7,51.3 23.9,53.9 31.8,2.6 28.9,-26.8 31.1,-48.9 8,-81.8 40.4,-151.2 103.8,-205.4 21.3,-18.3 41.6,-38 60.8,-58.5 40.2,-42.8 60.3,-94 60.6,-152.9"
         style="fill:#c26c49;fill-opacity:1;fill-rule:nonzero;stroke:none"
         transform="matrix(0.13333333,0,0,-0.13333333,0,2666.6667)" />
      <path
         id="path40"
         d="m 10013.3,16965.2 c 22.8,-4 65.3,-10.3 107.2,-19.6 16,-3.5 31.3,-12.3 45.4,-21.2 18.4,-11.5 32.1,-28.3 24.5,-51.6 -7.5,-23 -27.5,-29.8 -49.7,-27.6 -31.6,3.1 -63.1,7.9 -94.6,12.2 -117.29,16.1 -231.6,3.9 -343.03,-35.8 -7.05,-2.5 -14.15,-8.1 -20.88,-7.6 -13.59,1 -37.67,3.5 -38.43,8.4 -2.6,16.6 -0.34,36.1 6.88,51.2 4.68,9.8 20.77,14.9 32.57,20.4 98.28,45.5 202.03,67.4 330.09,71.2"
         style="fill:#000000;fill-opacity:1;fill-rule:nonzero;stroke:none"
         transform="matrix(0.13333333,0,0,-0.13333333,0,2666.6667)" />
      <path
         id="path41"
         d="m 8396.51,16356.6 c -29.2,44.5 -65.78,71 -110.92,77.9 -23.38,3.6 -49.96,-8.8 -74.08,-16.9 -11.85,-4.1 -20.42,-18.2 -32.25,-21.7 -10.61,-3.1 -29.02,-2 -34.17,4.8 -5.47,7.1 -4.03,29.4 2.45,34.2 28.1,20.9 56.99,45.1 89.55,54.6 71.68,20.9 186.58,-41 216.42,-109.9 14.23,-32.9 6.5,-58.3 -24.77,-76.2 -14.59,-8.3 -31.09,-13.3 -45.84,-21.4 -38.44,-21.1 -46.92,-45.9 -25.58,-83.3 12.9,-22.6 30.7,-42.5 46.33,-63.6 12.45,-16.8 28.35,-35.6 7.57,-54.1 -20.29,-18.1 -39.03,-3.6 -52.58,13.4 -19.82,24.9 -40.68,49.6 -56.25,77.2 -36.28,64.1 -17.22,126.4 47.14,162.5 12.94,7.3 26.78,12.9 46.98,22.5"
         style="fill:#c26c49;fill-opacity:1;fill-rule:nonzero;stroke:none"
         transform="matrix(0.13333333,0,0,-0.13333333,0,2666.6667)" />
      <path
         id="path42"
         d="m 11300.1,16779.4 c -18.7,4.5 -32.9,4.8 -43.7,11 -60.3,34.9 -125.5,34.1 -191.5,28.8 -33.7,-2.8 -67.3,-6.7 -101,-7.4 -23.4,-0.4 -46.1,6.4 -50.5,34.5 -4.4,28 15.9,40.6 37.5,49 48.5,18.8 99.5,18.8 150,13.7 69.5,-7.1 136,-27.1 199,-57.4 9.9,-4.7 21.5,-10.3 27,-18.8 5.2,-8.3 8.5,-24.3 3.9,-30.9 -7.2,-10.7 -21.7,-16.3 -30.7,-22.5"
         style="fill:#000000;fill-opacity:1;fill-rule:nonzero;stroke:none"
         transform="matrix(0.13333333,0,0,-0.13333333,0,2666.6667)" />
      <path
         id="path43"
         d="m 10556.5,18372.1 c -15.4,-8.5 -26.2,-18.8 -37.7,-19.6 -8.9,-0.6 -20,9.2 -27.7,16.9 -137.6,137.7 -310.2,208.6 -493.83,257.5 -213.25,56.9 -426.73,62 -639.99,-1.2 -17.92,-5.3 -36.79,-11.3 -54.92,-10.5 -11.82,0.6 -23.09,13 -34.61,20.1 7.73,11.4 14.37,23.8 23.66,33.8 4.44,4.8 13.83,5.1 21.05,7.2 381.73,111 739.94,51 1076.74,-152.1 49.2,-29.7 90.8,-72.5 134.9,-110.3 10.9,-9.3 18.1,-23 32.4,-41.8"
         style="fill:#4a4270;fill-opacity:1;fill-rule:nonzero;stroke:none"
         transform="matrix(0.13333333,0,0,-0.13333333,0,2666.6667)" />
      <path
         id="path44"
         d="m 7851.21,17302.6 c 9.56,26.4 15.92,46 23.66,65.1 73.19,180.3 204.23,309.3 369.51,403.9 67.77,38.8 143.29,64.6 216.55,93 40.74,15.8 63.96,9.7 70.29,-9.3 6.57,-19.7 -8.36,-36.1 -51.14,-48 -155.78,-43.7 -287.74,-126.7 -402.34,-239.2 -72.16,-70.9 -125.69,-153.9 -161.7,-248.3 -3.34,-8.8 -3.83,-20.2 -9.86,-26 -9.62,-9.2 -23.68,-21.2 -34.2,-19.8 -8.73,1.2 -15.05,20 -20.77,28.6"
         style="fill:#4a4270;fill-opacity:1;fill-rule:nonzero;stroke:none"
         transform="matrix(0.13333333,0,0,-0.13333333,0,2666.6667)" />
      <path
         id="path45"
         d="m 8617.85,17558.8 c 6.17,-4.9 21.92,-11.3 23.44,-20.1 1.56,-9.1 -10.54,-20.8 -17.44,-30.8 -1.85,-2.6 -6.41,-3.9 -9.97,-4.9 -137.14,-39.1 -247.32,-124.5 -358.33,-208.6 -17.96,-13.6 -35.26,-29.2 -55.41,-38.3 -10.59,-4.8 -26.68,2.6 -40.28,4.6 2.05,13.4 -0.91,33.2 6.89,39.4 131.09,104.1 262.23,208.6 427.93,254.7 5.4,1.5 11.07,1.9 23.17,4"
         style="fill:#4a4270;fill-opacity:1;fill-rule:nonzero;stroke:none"
         transform="matrix(0.13333333,0,0,-0.13333333,0,2666.6667)" />
      <path
         id="path46"
         d="m 11113.7,18189.5 c -1.6,-11.8 -2.1,-34.9 -8.7,-56.1 -3,-9.4 -18.8,-21.2 -27.8,-20.4 -9,0.8 -18.1,15.1 -24.4,25.2 -3.3,5.5 -2,14.9 -0.7,22.1 13.6,72.6 -10.7,137.1 -41.7,200.2 -5,10.1 -10.9,19.9 -14.5,30.5 -5.7,16.3 -11.1,36.5 10.7,42.3 10.2,2.6 28.6,-7 36.2,-16.6 38,-47.9 72.2,-156.4 70.9,-227.2"
         style="fill:#4a4270;fill-opacity:1;fill-rule:nonzero;stroke:none"
         transform="matrix(0.13333333,0,0,-0.13333333,0,2666.6667)" />
      <path
         id="path47"
         d="m 10666.8,8538.4 c 21.3,105.9 41.9,208.5 62.6,311 129.2,637.9 313.1,1261.4 493.9,1885.9 115.4,398.8 215.7,801.9 323.6,1202.8 37.1,137.8 73.5,276 116.4,412.1 46.1,146 6.1,259.7 -117.7,343.5 -87,58.9 -176.7,114.2 -268,166.4 -132.2,75.4 -267.5,145.5 -400.3,219.8 -57.4,32.1 -111.9,69.2 -167.7,104.1 -9.6,6 -18.6,12.8 -28.5,18.2 -16.5,8.9 -35.5,11.5 -43.3,-7.8 -4.2,-10.5 1.6,-28.8 9,-39.1 8.3,-11.6 23.1,-19 36,-26.6 121.5,-71.4 242.5,-143.6 365,-213.4 111,-63.2 224.7,-121.9 335.2,-186.1 53.4,-31 103.2,-68.7 152.6,-106.1 77.4,-58.5 102.7,-135.5 75.3,-229.6 -25.3,-86.6 -50.9,-173.1 -73.9,-260.2 -81.4,-308.9 -157.9,-619 -243.3,-926.8 -109,-392.8 -225.7,-783.4 -337.5,-1175.4 -137.2,-481 -250.4,-967.6 -344.9,-1458.7 -2.5,-12.6 -6.2,-25 -10.8,-43.6 l 105.1,8 c -10.8,-0.9 -21.9,0.8 -38.8,1.6"
         style="fill:#2842c7;fill-opacity:1;fill-rule:nonzero;stroke:none"
         transform="matrix(0.13333333,0,0,-0.13333333,0,2666.6667)" />
      <path
         id="path48"
         d="m 10487.2,7793.7 c -1.9,-18.9 -2.5,-41.7 23.3,-43.1 23.6,-1.3 28.6,19.4 31.5,39.1 15,100.3 30,200.7 45.7,300.9 6.3,40.5 14.6,80.7 22.7,124.8 l -65.2,-4.4 c -15,-103 -28.9,-195.8 -42,-288.6 -6.1,-42.8 -11.5,-85.7 -16,-128.7"
         style="fill:#2842c7;fill-opacity:1;fill-rule:nonzero;stroke:none"
         transform="matrix(0.13333333,0,0,-0.13333333,0,2666.6667)" />
      <path
         id="path49"
         d="m 17930.5,12572.2 c -6,-23.6 -15,-46.5 -22.9,-69.6 -430.7,-1264.6 -861.5,-2529.1 -1292.2,-3793.7 -4.3,-12.4 -8.6,-24.9 -12.4,-37.4 -17.1,-55.9 -35.6,-71.5 -95.5,-75.4 -84.4,-5.4 -169,-9.6 -253.5,-14.2 -262.8,-14.2 -525.6,-28.5 -788.5,-42.5 -317.4,-16.9 -634.8,-33 -952.2,-50.3 -313.6,-17 -627.1,-35.2 -940.7,-52.5 -266.6,-14.8 -533.2,-32.8 -800,-41.5 -89.4,-2.9 -177.6,-15.1 -266.8,-17.2 -92.1,-2.2 -184.1,-7.9 -276.1,-12.8 -90.2,-4.9 -180.2,-11 -270.3,-16.2 -90.2,-5.2 -180.3,-10 -270.5,-14.8 -306.1,-16.1 -612.2,-31.7 -918.3,-48.2 -244.2,-13.2 -488.2,-27.6 -732.3,-41.1 -20.6,-1.2 -41.22,-0.2 -66.53,-0.2 0,57.9 0,111.4 0,166.5 15.6,3.7 26.06,7.6 36.73,8.5 206.2,16.8 412.4,33 618.5,49.7 200.6,16.3 401,33 601.6,49.3 215.5,17.5 431,34.9 646.6,52.3 108.7,8.7 217.4,17.1 326.1,26.5 67.7,5.9 93.4,29.6 115.8,95.8 105,309.9 184.6,627 274.8,941.2 191.3,666.3 388.5,1331 587.7,1995 82.1,273.4 174.4,543.9 265,814.6 22.5,67.4 55.3,131.5 85.8,196 31.9,67.4 82.6,96.8 161.7,96.7 1354.5,-1.9 2709,-1.4 4063.5,-1.4 20.7,0 41.5,0.5 62,-1.6 93.1,-9.4 135.8,-70.3 112.9,-161.5 z M 16286,8378.9 c -51.3,-37.5 -104.7,-73.8 -161.8,-101.4 -174.1,-84.4 -349.2,-167.3 -526.3,-245.2 -123.1,-54.2 -236.1,-122.1 -342.1,-204.9 -117,-91.3 -236.1,-180.6 -359.9,-262.2 -153.2,-101.1 -320.9,-173.1 -502.1,-208.3 -255.3,-49.5 -493.8,-6.9 -711,138.8 -35.5,23.8 -66.1,55.1 -98.5,83.6 -41.9,36.9 -83.8,73.8 -124.6,111.9 -14.2,13.3 -25.1,29.9 -31.3,52.2 20.3,-8.3 40.5,-17.3 61.2,-24.8 12.2,-4.3 25.6,-9.5 37.7,-8.1 9.1,1 20,10.5 24.4,19.1 3,5.9 -1.3,20.1 -7,24.8 -12.8,10.4 -27.9,19.1 -43.3,25.1 -125.9,48 -221.3,131.6 -295.4,243.2 -45.7,68.8 -96,134.7 -145.1,201.2 -37.8,51.1 -17.6,100.7 45.9,109.1 18.6,2.5 37.5,3.3 56.3,4.4 95.4,5.9 174.3,-24.4 227.3,-107.3 51.9,-81.2 126.3,-131.5 214.4,-166.4 85.6,-33.9 169.7,-71.3 254.5,-107.3 63.8,-27 100.2,-18.7 140.9,37.6 47.4,65.5 91,133.7 138.4,199.2 79.1,109.2 184.3,182.6 316,212.2 70.7,15.9 143.6,21.7 214.3,31.9 28.2,-41.5 32.6,-80.5 22.1,-122.8 -20.7,-83.7 -66.3,-155.1 -110.6,-227.1 -52.2,-84.9 -104.7,-169.5 -157.1,-254.2 -3.9,-6.4 -7.5,-13 -11.1,-19.6 -9.3,-16.9 -10.4,-33.3 8.5,-43.6 18.2,-9.9 33.1,-1.4 43.2,14.4 25.3,39.6 51.3,78.8 74.5,119.6 63.8,111.9 140.9,212.3 234.7,301.3 41.6,39.6 75.8,88.8 105.7,138.4 39.4,65.3 91.2,101.9 168.4,103.9 76.9,1.9 153.7,8.5 230.5,10 21.6,0.4 44.1,-8.4 64.9,-16.3 25.6,-9.7 33.6,-29.9 21,-54.6 -15.4,-30.1 -29.2,-61.8 -49.7,-88.2 -84.2,-108.2 -168.8,-216.1 -256.9,-321.1 -48.2,-57.5 -103.7,-108.9 -155.9,-163 -2.6,-2.7 -5.4,-5.3 -8,-8 -15.4,-15.7 -29.4,-34.4 -9.6,-53.3 19.5,-18.7 38.2,-3.8 53.5,11.3 130.9,129.9 260.1,261.9 365.4,414 58.2,84.1 134.9,139.9 227,178.1 91.9,38 184.7,74 276.7,111.8 79.9,32.8 163.9,40.2 248.7,42.8 80.4,2.6 160.9,15.8 241.2,-1.8 18.1,-3.9 36.3,-6.9 61,-11.5 -8.1,-55.5 -34.8,-92.5 -71,-118.9 z m -771.4,-601.7 c -22.1,-109.3 -63.5,-212.2 -111.1,-312.6 -50.8,-107 -107.8,-210.2 -180.8,-304.3 -34.2,-44 -75.8,-78 -122.7,-106.6 -193.4,-117.9 -402.7,-181.7 -629.7,-190.1 -246.8,-9.1 -483.2,32.1 -706.2,140.1 -268,129.9 -455.2,333.7 -558,614.2 -50.6,138.1 -83,280.9 -111.1,424.9 -1.2,6.5 -0.1,13.4 -0.1,32.2 17.4,-24 27.6,-39.1 38.9,-53.3 46.8,-58.6 93.9,-117 141.1,-175.4 5.8,-7.3 14.3,-13 18.6,-21 76.3,-141.9 188,-252.7 312.5,-351.4 82.4,-65.4 169.2,-125.4 252.1,-190.2 74,-57.8 147.2,-116.8 217.3,-179.1 77.6,-69 132.1,-81.1 224.9,-34.3 46.8,23.7 90.8,53.1 135.3,81.2 146.2,92.3 290.3,188.1 438.4,277.3 147.6,88.7 284.3,189.2 403.8,314.1 51.6,53.9 113.4,98.2 172,145.1 20.5,16.4 45.3,27.7 74.7,10 10.7,-40.7 -1.9,-81 -9.9,-120.8 z M 14501.7,6478.5 c -277.7,-115.6 -568,-154.1 -866.5,-137.8 -351.3,19.1 -647,167.3 -906.4,396.9 -35,31.1 -80.8,59.4 -97.5,99.1 -15.7,37.4 -0.8,88.3 2.8,133.2 29.1,361.5 58.8,723.1 88.3,1084.6 7.3,89.8 15,179.6 23.1,276.4 38.3,1.7 77,4.1 115.7,4.5 8.1,0.1 18.1,-5.8 23.9,-12 27,-28.5 52.9,-57.9 78.8,-87.4 4.8,-5.5 6.4,-15.6 12.2,-18.6 46,-23.8 43.4,-69.1 50.4,-110.4 25.4,-150.1 53.5,-299.4 99.5,-445 120.8,-382.3 373.9,-638.1 748.5,-770.2 352.2,-124.3 707.1,-129.6 1058.5,9.1 58.7,23.2 114.7,53.1 172,80 -151.2,-230.3 -351.8,-397.7 -603.3,-502.4 z m -1903.3,797.7 c -13.9,-178 -26,-356.2 -39.3,-534.3 -15.6,-210.5 8.5,-416.9 67.9,-618.8 121.2,-411.4 207.1,-831.1 296.4,-1250 74.8,-351.3 176.9,-695.2 276.3,-1040 35.4,-122.5 61.9,-247.6 89.6,-372.2 6.4,-28.5 3.6,-59.8 0.7,-89.5 -3.2,-32.8 -22.8,-55.4 -56,-62.8 -21.9,-4.8 -44.2,-9.5 -66.5,-10.5 -187.8,-8.1 -375.8,-14.3 -563.6,-23.3 -182.1,-8.7 -364.1,-22.6 -546.3,-29.5 -201.1,-7.6 -402.6,-12.8 -603.1,9 -93,10.1 -186.3,26.5 -276.6,50.6 -188.4,50.2 -331,164.7 -434,329.4 -94.3,150.6 -145.1,317.2 -178.5,489.8 -40.5,209 -57.6,420.6 -68.7,632.9 -5.2,97.6 -11.2,195.2 -15.4,292.9 -1.2,25.9 2.5,52 4.2,77.9 0.4,7.4 3.7,15.1 2.4,22 -33.7,170.5 -22.2,344 -34.2,515.9 -15.2,215.6 -22.6,431.8 -33.5,647.8 -30.6,608.6 -53.4,1217.4 -47.8,1827 0.2,18.6 0.1,37.2 0.1,61.5 57.7,3 111.3,5.8 172.7,9 l 65.2,4.4 c 688.6,37.3 1373.4,74.5 2064.5,111.9 1.1,-18.6 4,-34.7 2.9,-50.4 -9.4,-131.3 -19,-262.5 -29.5,-393.7 -16.3,-202.3 -34,-404.6 -49.9,-607 z m 840.1,-6266 c -2637.3,0 -5271.5,0 -7905.63,0 -5.03,142.7 284.71,1802.7 352.9,2018.3 19.34,0 41.21,-0.4 63.06,0.1 184.31,3.4 368.69,7.3 551.5,33.5 64.96,9.3 129.86,21.9 193.23,38.8 179.6,48 321.58,150.4 428.25,302.8 96.76,138.3 165.37,290.7 224.94,447.3 155.4,408.5 273.12,827.7 350.79,1257.9 2.28,12.7 5.77,25.1 8.22,35.6 903.26,-17.6 1803.47,-35.2 2709.94,-52.8 0.9,-9.9 3,-26 3.9,-42 15.3,-277.9 24.9,-556.2 67.4,-831.8 26.2,-169.6 65,-335.9 137.8,-492.4 103.7,-222.6 260.1,-391.8 499.3,-467.7 90.7,-28.8 186,-46.9 280.6,-58.9 209.5,-26.7 420.5,-24.2 631.1,-14.5 287.4,13.3 574.7,29.9 862,44.8 26,1.3 52,0.2 79.2,0.2 176.6,-735.7 299,-1479.5 461.5,-2219.2 z M 5595.32,3095.6 c -144.75,7.3 -196.68,66.7 -194.73,213.1 1.69,126.6 24.95,251 57.43,372.6 114.41,428.4 230.96,856.1 348.99,1283.5 91.51,331.4 189.43,661 279,992.9 90.65,335.9 133.46,679 122.64,1027 -8.71,280 -20.63,560.1 -40.18,839.6 -35.32,504.7 -76.77,1009.1 -59.97,1515.8 12.21,368.4 24.65,736.9 42.48,1105.1 15.65,323 35.94,645.9 59.64,968.4 28.11,382.6 69.62,763.8 130.04,1142.9 2.96,18.5 6.62,37.9 3.69,55.9 -1.92,11.8 -15.17,21.7 -23.35,32.4 -10.53,-8.7 -28.04,-16 -30.39,-26.6 -10.54,-47.6 -18.3,-96 -24.31,-144.5 -30.06,-242.5 -62.58,-484.7 -87.74,-727.8 -21.1,-203.7 -36.57,-408.3 -48.66,-612.8 -22.73,-384.8 -44.85,-769.8 -60.36,-1155 -12.94,-321.2 -16.64,-642.9 -23.19,-964.5 -1.91,-93.5 -42.89,-167.3 -114.74,-220.8 -58.48,-43.6 -123.06,-80 -188.05,-113.6 -405.77,-209.7 -811.29,-419.9 -1219.15,-625.4 -313.86,-158.2 -631.42,-309 -958.66,-438.1 -206.52,-81.5 -415.74,-154.7 -635.74,-191.5 -109.89,-18.4 -220,-25.9 -331.16,-7.9 -174.83,28.2 -305.57,119.9 -395.74,270.7 -63.73,106.6 -96.23,224.1 -114.66,345.7 -31.46,207.6 -28.53,416.1 -15.25,624.9 23.24,365.1 95.04,722.6 167.86,1080 78.09,383.2 145.84,768 199.18,1155.5 40.49,294.1 88.31,587.3 132.97,880.8 1.1,7.3 3.43,14.4 7.25,29.9 84.49,-40 165.68,-23.2 255.84,-2.2 -62.32,-123 -75.47,-247.9 -88.78,-372.4 -10.39,-97.2 -18.29,-194.7 -24.88,-292.3 -16.49,-244.4 -58.84,-484.7 -108.67,-724.2 -29.81,-143.4 -49.72,-288.8 -73.5,-433.3 -2.4,-14.6 -3.47,-30.6 -0.1,-44.7 2.08,-8.7 14.04,-21.5 21.01,-21.2 10.72,0.5 22.96,9 30.7,17.6 5.39,5.9 5.16,17.7 5.99,26.9 19.59,217.9 74.64,429.4 116.12,643.3 37.28,192.3 57.62,386.6 74.19,581.5 12.25,144.1 27.48,288.1 45.52,431.7 8.46,67.3 31.55,130.8 73.03,187.2 16.43,22.3 33.9,37 59.31,47.5 387.62,159.1 775.16,318.4 1162.13,479.1 222.43,92.4 440.75,193.3 642.13,327.3 4.5,2.9 10.26,4 23.79,9.2 1.02,-29.6 5.39,-56.7 2.26,-82.9 -11.39,-95.2 -21.47,-190.7 -38.89,-284.8 -99.24,-536.3 -238.21,-1063.3 -371.3,-1591.7 -36.69,-145.6 -70.15,-292.2 -99.88,-439.4 -12.94,-64.1 -15.3,-130.7 -17.93,-196.4 -5.65,-140.9 -5.8,-282.1 -12.91,-422.9 -8.95,-177.4 -37.71,-351.3 -110.06,-515.6 -10.58,-24 -21.34,-48.5 -26.71,-73.9 -2.41,-11.5 8.26,-25.6 12.99,-38.6 12.72,5.1 26.76,8.4 37.68,16 6.7,4.8 8.77,16.2 12.66,24.7 75.67,166.1 118.58,340.6 129.15,522.5 7.21,123.9 13.69,248 14.48,372 1.27,200.6 27.06,397.1 80.68,590.5 35.13,126.7 66.22,254.5 98.8,382 7.09,27.6 18.19,49.7 43.32,68.4 139.84,104 255.74,232.2 365.51,366.7 59.4,72.8 120.99,144 185.1,212.7 69.24,74.1 153.34,128.4 252.09,153.9 121.16,31.2 214.49,100.3 281.93,202.5 84.81,128.7 165.24,260.2 246.41,391.2 50.51,81.5 98.4,164.6 148.35,246.4 95.93,157.2 227.98,274.2 396.88,347.5 151.65,65.9 304.86,128.1 457.14,192.6 148.84,62.9 297.8,125.6 445.85,190.4 63.62,27.9 125.12,60.5 187.44,91.3 8.34,4.1 16.17,9.5 23.6,15.2 254.32,193.8 505.72,391.2 747.02,601.2 42.46,37 88.82,69.5 134.31,102.8 17.88,13.1 38.32,22.7 61.45,36.2 16.34,-33.3 16.41,-64.8 12.5,-95.5 -21.65,-169.5 -39.92,-339.7 -68.11,-508.2 -48.74,-291.5 -135.39,-574 -211.17,-859.1 -107.35,-403.7 -187.2,-812.8 -247.53,-1226.1 -47.82,-327.5 -83.81,-656.4 -109.27,-986.4 -31.41,-407.1 -38.16,-815.2 -41.81,-1223.4 -5.59,-624.6 -10.93,-1249.1 -21.1,-1873.5 -6.1,-374.2 -16.33,-748.5 -33.52,-1122.4 -19.8,-430.4 -66.29,-858.5 -153.47,-1281.1 -88.66,-429.8 -210.4,-849.8 -384.55,-1253.4 -34.12,-79 -76.6,-155 -120.54,-229.3 -114.09,-192.7 -285.17,-304.3 -503.94,-347 -146.36,-28.6 -294.29,-39.1 -442.81,-45 -52.63,-2 -105.29,-4.7 -157.93,-4.5 -134.4,0.6 -269.01,-1.6 -403.14,5.2 z M 3070.8,11979.5 c 2.83,10.8 6.26,21.5 10.24,32 109.84,289.3 236.57,572.4 306.84,874.7 170.74,-7.4 333.47,-21.1 496.05,-19.6 161.37,1.5 323.03,13.9 483.75,29.7 162.19,15.9 323.38,42 494.33,64.8 -23.77,-73.4 -43.41,-140 -67.63,-205 -6.48,-17.3 -24.59,-33.4 -41.37,-43.3 -92.22,-54.3 -182.72,-112.8 -279.34,-158.1 -186.98,-87.6 -376.67,-169.7 -567,-249.9 -257.88,-108.6 -517.41,-213.3 -776.28,-319.5 -18.24,-7.5 -36.84,-14.2 -55.48,-21.3 -2.47,8.8 -4.87,12.5 -4.11,15.5 z m 676.92,1701.1 c 250.52,569.8 470.46,1151.2 676.31,1738.3 55.36,157.9 117.89,313.3 202.75,458.1 36,61.4 76.17,121.1 120.18,177 130.4,165.8 299.45,227.6 505.32,173.7 168.95,-44.3 337.23,-91.2 505.08,-139.5 191.34,-55.1 382.64,-110.5 572.35,-170.8 71.08,-22.7 139.68,-55.6 205.83,-90.7 113.02,-59.8 158.19,-156.8 135.09,-282.7 -9.03,-49.2 -24.56,-97.3 -36.93,-145.1 -9.68,1.3 -15.04,0.7 -15.85,2.4 -43.35,87.5 -116.17,142.9 -204.29,176.6 -98.13,37.5 -198.38,69.8 -298.48,102 -246.77,79.3 -494.04,157 -740.99,235.8 -45.67,14.6 -65.25,14.2 -68.09,-6.6 -5.28,-38.6 29.46,-39.4 52,-46.8 242.61,-79.9 485.62,-158.6 728.56,-237.4 82.17,-26.7 165.02,-51.4 246.46,-80.2 40.52,-14.3 79.83,-33.3 117.45,-54.2 110.53,-61.5 152.73,-167.1 124.15,-298.9 -21.57,-99.5 -81.47,-176.7 -158.8,-240.2 -32.62,-26.7 -68.69,-49.3 -110.13,-67.8 5.86,15 11.71,30 17.57,45.1 38.36,98.2 22.56,187.9 -43.38,269.3 -47.06,58.1 -107.58,99.1 -172.57,134.2 -106.47,57.3 -220.26,96.4 -335.74,130.2 -187.46,55 -375.57,107.7 -563.45,161.2 -8.96,2.6 -19.55,7 -27.3,4.4 -11.2,-3.8 -24.3,-11.2 -29.25,-20.9 -3.29,-6.4 3.37,-24.9 10.44,-28.5 45.96,-23.7 87.67,-58.9 143.89,-57 11.06,0.3 22.7,0 33.21,-3 180.63,-51.5 362.28,-99.9 541.12,-157 81.63,-26.1 160.3,-65 235.27,-107.1 46.34,-26 88,-64.7 123.14,-105.3 49.21,-56.7 58.58,-125.8 27.61,-195.5 -16.64,-37.4 -36.5,-75 -62.33,-106.4 -120.78,-146.8 -249.96,-286.1 -392.75,-412 -73.94,-65.2 -155.11,-119.9 -255.23,-136.9 -99.53,-16.8 -186.52,11.3 -259.05,80.4 -55.97,53.4 -71.16,118.8 -41.82,190.9 45.29,111.3 126.01,189.8 233.15,241.9 20.41,9.9 41.36,15 65.15,5.1 8.02,-3.4 28,4.2 31.33,11.8 3.81,8.7 -2.31,24.5 -8.75,34.1 -7.01,10.4 -20.11,16.5 -29.23,25.8 -43.76,44.4 -73.77,47.5 -121.17,9 -18.84,-15.4 -36.41,-33 -51.6,-51.9 -44.68,-55.7 -90.29,-110.9 -131.18,-169.4 -115.65,-165.3 -66.08,-335.1 120.04,-413.9 98.63,-41.8 199.28,-40.4 295.75,3.9 55.86,25.7 107.95,60.6 158.68,95.8 27.11,18.8 51.99,33.8 86.28,34.9 33.36,1.2 66.47,9.3 98.41,14.2 138.42,-204.9 222.88,-234.8 512.78,-178 -115.19,-114.9 -206.6,-242.3 -340.35,-326.7 -97.92,-61.8 -207.1,-86.4 -320.13,-99.5 -123.13,-14.2 -247.11,-23.8 -369.04,-45.1 -165.75,-28.8 -293.06,-121 -386.23,-260.8 -83.08,-124.6 -139.97,-261.9 -186.76,-402.9 -18.37,-55.3 -44.02,-78.6 -103.61,-86.5 -352.44,-46.9 -704.68,-93.6 -1061.39,-84.8 -75.09,1.9 -150.07,9.3 -225.03,15.1 -18.18,1.4 -36.08,6.5 -63.2,11.6 97.05,245.9 184.57,490.2 288.75,727.2 z m 2884.23,1170.1 c 84.16,-79.8 129.68,-178.8 135.79,-294 1.54,-28.9 -8.65,-59 -16.82,-87.6 -5.55,-19.4 -15.04,-37.1 -39.32,-43.5 -13.16,-3.5 -23.89,-16.9 -35.16,-26.6 -100.9,-86.1 -220.82,-123.6 -341.23,-138.4 -122.97,7.1 -209.25,57.9 -263.73,159.4 -32.5,60.6 -29.92,120.4 13.26,173.9 31.66,39.3 65.49,78.2 104.26,110 63.64,52.3 131.23,100 198.95,147 22.68,15.7 50.1,25.8 76.64,34.6 61.86,20.4 119.3,10.7 167.36,-34.8 z M 8529.39,5519.8 c -14.26,-111.8 -27.7,-217.2 -42.07,-330 -255.76,4.9 -510.47,9.8 -771.69,14.8 16.46,116.9 32.03,227.5 48.48,344.3 255.45,-31.5 507.33,-55.5 765.28,-29.1 z m 861.28,59.5 c -12.82,-137.5 -24.97,-267.8 -37.09,-397.8 -44.25,-13.6 -737.1,-1.1 -795.17,14.1 -8.06,57.1 12.21,246.8 36.9,334.3 110.98,19.1 224.38,44.9 339.21,56.3 96.66,9.6 195,3.4 292.57,2.2 52.3,-0.7 104.55,-5.7 163.58,-9.1 z m 1006.63,-28.1 c 6,-129.9 11.8,-256.2 17.7,-386 -107.6,-12.1 -928.22,-1.7 -1000.6,13.1 10.58,130.5 21.23,262 32.27,398.1 318.86,-15.2 630.33,-55 950.63,-25.2 z m -1837.91,8705.4 c 23.18,-18.2 37.89,-29.3 52.06,-41 135.07,-111.6 277.57,-212.2 429.19,-300.5 136.05,-79.2 280.52,-111.9 437.59,-101.5 218.13,14.4 432.71,52.4 647.47,89.5 107.4,18.6 214.5,38.8 321.8,57.8 16.3,2.9 33.1,3 55.8,4.9 4.9,-49.4 12.8,-95.5 13.2,-141.6 1.3,-137.3 3.8,-274.7 -1.8,-411.8 -11.6,-283.6 -27.9,-567.1 -42.6,-850.7 -20.8,-400 -43.5,-799.8 -62.6,-1199.9 -15.1,-319.3 -26.7,-638.8 -38.8,-958.3 -14.1,-373.9 -28.3,-747.9 -39.9,-1122 -7.3,-233.1 -9.9,-466.3 -14.8,-699.5 -0.5,-23.9 -2.3,-47.9 -3.6,-75.1 -45.2,-4.5 -85.8,-8.9 -126.6,-12.3 -67.4,-5.6 -134.9,-10.6 -202.43,-15.8 -47.86,-3.7 -54.95,-8.4 -62.2,-55.5 -11.97,-77.9 -23.92,-156.1 6.38,-239.7 124.15,-5.8 248.85,13.1 378.65,13.7 1.7,-18.6 4.4,-34.5 4.6,-50.6 2.6,-270.8 1.8,-541.7 8.2,-812.4 6.3,-265.1 18.7,-530 30.6,-794.9 12.9,-285.5 28.5,-570.9 42.6,-856.4 1,-20.4 0.1,-40.9 0.1,-69.3 -54.3,-4.3 -107.9,-13.1 -161.3,-12.1 -156,3 -311.96,8.5 -467.83,15.6 -200.94,9.1 -401.77,20.8 -602.65,31.4 -10.53,0.6 -21.06,0.9 -32.97,8.9 11.13,4.6 22.01,10 33.42,13.7 202.77,66.6 410.81,106.4 623.55,122.3 14.86,1.1 30.98,1.4 43.87,7.5 9.88,4.7 21.83,18.5 21.34,27.7 -0.46,8.5 -15.05,21.3 -25.19,23.3 -17.96,3.6 -37.3,1 -55.99,-0.1 -240.17,-13.5 -471.05,-71.8 -699.41,-143.5 -166.77,-52.4 -334.74,-100.1 -508.96,-122.5 -144.22,-18.5 -288.72,-22.3 -433.5,-12.6 -115.94,7.7 -231.66,18.9 -351.96,28.9 0,17.6 -0.81,30 0.12,42.3 18.63,245.5 40.95,490.9 55.13,736.7 11.26,195.2 15.28,390.9 17.9,586.4 11.16,835 20.42,1670.1 30.76,2505.1 4.77,385.6 20.57,770.6 54.31,1154.9 55.15,628.1 144.7,1250.7 296.33,1863.3 62.28,251.6 133.55,501 196.1,752.6 60.37,242.8 104.86,488.8 121.23,739 5.73,87.5 8.27,175.2 12.79,274.1 z m -39.57,1529.9 c -110.31,78 -231.18,141.7 -326.79,239.7 -54.36,55.7 -98.95,118.2 -128.95,190.3 -28.31,68.1 -36.1,137.9 -15.62,209.6 25.97,91 72.84,169.2 146.37,229.4 71.35,58.4 134.09,57.8 202.14,-3.8 33.23,-30.1 62.23,-65.3 90.56,-100.3 35.47,-43.8 67.48,-90.5 102.61,-134.6 15.07,-18.9 32.21,-37.5 52.03,-51 34.55,-23.4 67.64,-9.1 75.42,32.1 4.1,21.7 2.46,44.8 0.99,67.1 -5.06,76.9 -12.38,153.6 -16.58,230.5 -4.24,77.5 15.29,150.3 59.45,213.7 58.39,83.8 72.75,173.8 59.11,273.5 -12.44,90.9 -28.55,182.6 -6.88,274.8 26.64,113.4 53.85,226.7 78.57,340.4 32.76,150.9 125.56,243.1 270.75,288.5 117.35,36.7 237.76,55.7 359.56,67.1 330.82,30.7 661.34,21.6 991.34,-12.6 142,-14.8 284,-33.2 420.5,-77.9 29.7,-9.7 59.1,-24.9 83.7,-43.9 76.8,-59.1 139.9,-131.5 187,-216.3 81,-145.9 127.9,-303.9 163.4,-473 -117.3,95.4 -254.8,121.9 -390.1,152.2 -31.5,7 -67.4,2.2 -99.9,-4.1 -36.2,-7 -60,-33.2 -62.6,-70.9 -2.7,-37.7 17.2,-68.8 51.9,-78.9 51.8,-15.1 106.1,-22.1 159.4,-31.8 77.4,-14.2 155.7,-24.6 232.2,-42.7 42.2,-9.9 76.9,-9.7 114.5,31.8 2,-33.6 4.4,-58.7 4.9,-83.8 1.9,-105.2 -4.6,-211.4 6.6,-315.6 15.1,-139.9 42.8,-278.4 66.5,-417.3 47.7,-278.8 72.9,-559.3 58.5,-842.3 -8.3,-162.4 -39.9,-320.3 -97.7,-473 -133.9,-354 -386.1,-573.3 -750.8,-669.3 -90.7,-23.8 -178.4,-19.5 -267.5,-0.3 -344,74 -673.24,187.4 -976.48,368.8 -172.67,103.3 -324.15,231.4 -446.54,392.4 -73.47,96.7 -130.31,202 -168.33,317.4 -2.35,7.1 -5.32,14 -7.59,21.2 -5.76,18.1 -11.19,39.9 -34.82,37.3 -26.39,-2.8 -29.39,-28.3 -29.05,-48 0.42,-24.1 6.8,-48.2 12.28,-72 68.77,-298.1 212.5,-558.4 413.48,-785.4 293.31,-331.4 656.56,-558.3 1076.75,-695 12.5,-4.1 25.1,-7.9 37.6,-12.1 1.6,-0.5 2.9,-2.3 8.3,-6.9 -10.2,-5.1 -18.1,-11.7 -26.9,-13.1 -230.2,-36.3 -460.1,-74.2 -690.8,-106.5 -72.11,-10.2 -146.46,-8.2 -219.6,-6 -68.22,2 -133.18,23 -194.37,53.6 -203.15,101.4 -385.51,233.5 -559.06,378.7 -18.16,15.2 -23.69,31 -20.24,53.9 49.85,330.7 47.52,663.3 38.02,996.4 -3.15,110.7 2.76,221.7 4.53,332.5 3.57,0.4 7.14,0.8 10.71,1.2 14.78,14.7 40.36,28.3 42.05,44.4 3.33,31.8 -30.22,25.2 -50.33,30.3 -15.29,3.9 -31.48,4 -47.01,7 -16.04,3.2 -34.7,3.7 -47.18,12.6 z m 29.62,-645.5 c -2.56,-1.1 -5.13,-2.1 -7.69,-3.2 -6.13,11.6 -14.67,22.5 -18.03,34.8 -43.47,159 -129.91,294.2 -227.74,424.4 -147.36,196.1 -266.92,408.8 -366.61,632.9 -105.8,237.9 -150.83,487.1 -144.26,746.5 1.43,56.4 3.93,112.7 6.47,169 1.2,26.8 -3.9,47.4 -23.45,70.7 -63.34,75.5 -92.15,167.9 -103.61,264 -38.26,321 132.25,658.8 412.64,819.2 56.96,32.6 116.13,62.2 176.66,87.5 334.58,139.6 669.54,278.4 1005.12,415.6 135.86,55.6 275.86,97.7 421.49,121.2 236.93,38.2 465.07,7.5 683.87,-87.1 92.9,-40.1 183.7,-86.8 270.7,-138.6 150.2,-89.5 308.1,-154.5 481,-185.2 62.4,-11.1 123.1,-33.5 183.3,-54.3 33.4,-11.6 65.5,-28.7 96.1,-46.9 136.4,-81.6 186.5,-191.4 158.6,-347.8 -9,-49.8 -20,-99.6 -34,-148.2 -39.4,-137 -80.9,-273.5 -124.3,-419.5 -8.4,22.9 -13.7,37.6 -19.1,52.2 -25.1,66.8 -47.5,134.7 -75.9,200.1 -47.7,110.3 -122.7,200.6 -208,285 -52.2,51.6 -112.6,77.6 -179.6,96.7 -148.9,42.4 -301.6,63.4 -455,77.9 -217.4,20.7 -435.4,28.8 -653.62,22.9 -199.33,-5.4 -398.37,-17.1 -592.59,-67.3 -48.87,-12.6 -97.05,-29.8 -143.4,-49.9 -107.66,-46.7 -180,-127.6 -216.74,-238.9 -14.1,-42.7 -24.52,-86.7 -34.94,-130.5 -16.09,-67.6 -27.23,-136.6 -46.8,-203.1 -29.35,-99.8 -29.15,-200.2 -18.29,-301.8 3.2,-29.9 5.26,-59.9 9.57,-89.7 10.77,-74.3 -6.02,-140.9 -48.79,-202.8 -60.28,-87.2 -78.06,-186.3 -71.95,-290.1 4.08,-69.2 11.74,-138.2 18.7,-217.5 -15.33,13.6 -25.28,20.1 -32.14,29 -34.44,44.7 -66.42,91.3 -102.49,134.6 -31.17,37.4 -63.7,74.7 -100.86,105.8 -77.65,65 -165.66,66 -249.3,8.3 -192.63,-132.8 -251.05,-387.8 -134.6,-589.9 52.39,-90.9 121.77,-167.2 206.52,-228.6 71.52,-51.9 144.58,-101.6 218.13,-150.6 26.3,-17.5 56.04,-29.8 84.93,-44.9 0,-190.4 0,-376.1 0,-561.9 z m 2017.16,-1119.8 c -0.4,20.6 -0.1,41.1 -0.1,70.4 27.2,-11.9 51.2,-20.7 73.4,-32.6 81.3,-43.4 162,-87.8 242.8,-131.9 94.4,-51.6 192.1,-94.7 297.2,-119.6 64.9,-15.4 116.8,-47.7 151.2,-108.1 9.6,-16.6 34,-30.2 54,-34.7 181.4,-41.1 362.3,-85.3 545.3,-117.7 147.7,-26.2 298.1,-37.2 447.4,-54.9 123.1,-14.7 246.5,-27.2 369.3,-44.4 151.1,-21 269.7,-99.3 363,-217.8 22.1,-28 44.2,-56.6 62,-87.3 100.2,-172.8 183.3,-353.4 242.2,-544.7 6.8,-22.3 9.5,-41.9 0.1,-65.1 -106.5,-263.4 -185.6,-536.1 -269.9,-806.9 -212.7,-683.5 -418.5,-1369 -608.6,-2059.2 -61.4,-222.8 -121.5,-445.9 -185.9,-667.7 -27,-93 -70.6,-181 -87.4,-277.4 -7.1,-41.3 -30.4,-60 -72.9,-63.2 -176.2,-13.4 -352.3,-29.2 -528.4,-43.6 -206.1,-17 -412.3,-33.4 -618.4,-50.2 -112.4,-9.2 -224.8,-18.8 -337.3,-27.8 l -105.1,-8 c -75.4,-6 -146.2,-11.6 -221.1,-17.6 -1.7,18.9 -4.4,33.3 -4,47.7 9.6,362.9 18.7,725.8 29.6,1088.6 8.1,270.7 17.1,541.4 28.2,812 16,388.9 33.4,777.9 51.7,1166.7 15.6,330.6 33.8,661.1 50.2,991.7 14.4,289.2 32.3,578.3 40.4,867.8 5,178.2 -5.5,357 -8.9,535.5 z m 7422,-1362.1 c -25.5,85.8 -85.8,135.9 -175.2,135.9 -440.2,0 -880.4,0 -1320.6,0 -933,0 -1866.1,-0.5 -2799.2,0.8 -89.6,0.1 -156,-32.3 -202.4,-108.1 -6.4,-10.5 -14.5,-20 -23.7,-32.5 -5.6,8.1 -9.4,12 -11.4,16.6 -54,126 -106,252.9 -162.3,377.8 -38.8,85.9 -90,165 -151.1,237.3 -96.8,114.5 -215.9,192.9 -365.4,216.9 -109.4,17.6 -219.4,32.2 -329.7,42.7 -174,16.5 -348.9,25.3 -520.6,60.8 -171.1,35.5 -341.8,72.9 -513,108.3 -18.8,3.9 -29.1,12.4 -38.7,27.8 -39.7,64 -98.6,100.1 -170.2,121.2 -68.3,20.2 -137.7,40.3 -201.5,71.1 -148.6,71.6 -294,149.5 -447,228.1 0,73.8 0,153.7 0,234.9 23.3,5.3 43.2,9.9 63.2,14.6 21.9,5.1 44,9.6 65.8,15.4 296.2,78.6 534,236.7 690.3,506.2 116.4,200.7 177.5,418.5 192.2,648.4 21,328.4 -6.7,654.1 -71.9,976.2 -37.1,183.1 -62.3,366.5 -55.7,554.1 2.7,74.7 -9.1,149.9 -13.1,224.9 -0.9,16.3 0.6,33.5 5,49.2 39.7,141 80.1,281.8 120.8,422.5 29.3,101.1 61,201.5 67.6,307.7 7.3,118.7 -30.3,219.7 -123.8,294.3 -43.7,34.8 -91.9,67.1 -143.1,88.5 -70.6,29.5 -144.6,54.9 -219.6,69.3 -170.4,32.7 -327.6,94.4 -475.2,185.1 -67.1,41.2 -138,76.9 -209.1,110.8 -234.8,112 -480.97,156.5 -740.4,123.4 -154.03,-19.7 -302.16,-61.4 -445.32,-119.3 -209.04,-84.5 -416.04,-174 -624.25,-260.6 -159.6,-66.4 -320.42,-129.9 -479.33,-197.9 -90.1,-38.5 -174.54,-88.4 -249.22,-152.8 -176.49,-152.1 -267.94,-350.1 -304.41,-575.8 -29.74,-184 5.29,-355 112.54,-509.8 8.74,-12.6 12.1,-30.6 13.21,-46.4 1.57,-22.4 -2.44,-45.1 -2.07,-67.6 2.03,-122.1 -1.82,-244.7 8.56,-366.1 17.01,-198.9 83.92,-384.6 168.72,-564.3 103.13,-218.4 227.57,-424 373.39,-616.4 76.79,-101.4 139.53,-209.4 174.74,-332.4 8.23,-28.8 19.39,-57.2 33.08,-83.8 17.77,-34.5 39.42,-67 67.33,-113.7 -1.46,-248.3 -33.11,-510.9 -64.3,-764.4 -56.38,-34.8 -106.92,-63.5 -154.73,-96.2 -40.28,-27.5 -77.77,-59.2 -115.84,-89.9 -194.7,-157 -389.19,-314.2 -583.73,-471.3 -49.69,-40.2 -99.1,-80.6 -149.14,-120.3 -11.53,-9.2 -24.43,-17.3 -37.9,-23.2 -110.32,-47.9 -220.62,-95.8 -331.5,-142.4 -223.5,-93.9 -447.01,-187.7 -671.17,-279.9 -216.6,-89.2 -383.12,-234.3 -499.95,-437.3 -60.02,-104.3 -120.35,-208.4 -183.52,-310.8 -60.18,-97.5 -122.75,-193.7 -187.02,-288.6 -57.84,-85.4 -136.78,-143.2 -238,-169.9 -114.03,-30 -209.97,-91.8 -289.85,-177.2 -60.34,-64.4 -117.8,-131.7 -174.22,-199.7 -86.53,-104.3 -172.11,-209.3 -273.68,-299.7 -14.87,-13.2 -30.73,-25.4 -56.33,-46.4 4.71,28 6.24,42.4 9.6,56.4 29.59,122.3 60.21,244.4 89.19,366.9 72.25,305.4 148.31,610.1 191.94,921.3 13.54,96.6 28.29,193.6 8.34,291.8 -3.09,15.1 2.64,33.3 8.14,48.8 52.89,148.7 104.91,297.7 160.66,445.3 38.55,102.1 85.4,200.6 149.37,290 76.28,106.6 175.86,182.5 304.64,208.6 108.31,21.9 219.29,30.4 328.89,46.2 79.85,11.5 160.66,20.1 238.77,39.2 139.73,34.3 250.4,118.5 346.42,222.4 106.03,114.7 213.09,227.9 335.46,326 103.52,83 135.44,193.2 99.25,318.6 -43.89,152.2 -114.64,283.7 -296.65,316.6 15.24,20.1 26.71,34.9 37.74,49.9 35.99,49 70.21,102 75.48,162 8.06,91.7 40.7,174.7 70.96,259.3 7.57,21.2 12.94,43.2 18.13,65.1 42.42,179.3 -7.41,298.6 -168.92,387.6 -63.82,35.2 -131.94,64.8 -201.26,87.2 -168.04,54.1 -337.55,103.8 -507.21,152.7 -187.72,54.1 -375.84,107 -564.67,157.1 -89.62,23.8 -181.87,30.7 -273.94,11.8 -132.36,-27.1 -229.07,-108.7 -312.28,-209.3 -72.35,-87.4 -132.38,-183.6 -176.79,-287.5 -71.6,-167.5 -141.3,-336 -203.58,-507.1 -131.76,-362 -256.89,-726.4 -407.08,-1081.3 -111.3,-263.1 -224.27,-525.5 -332.68,-789.7 -52.02,-126.8 -94.89,-257.4 -142.79,-385.9 -6.29,-16.9 -15.92,-43.6 -27.33,-45.5 -45.53,-7.5 -54.39,-41.3 -65.56,-75.3 -13.48,-41 -26.29,-82.2 -39.94,-123.2 -43.33,-130 -87.49,-259.8 -129.99,-390.1 -10.28,-31.5 -28.79,-49 -60.27,-59.6 -112.68,-38 -219.04,-89.8 -318.4,-155.4 -83.79,-55.3 -161,-117.9 -215.45,-204 -12.7,-20.1 -26.31,-42 -30.52,-64.7 -32.56,-175.6 -65.97,-351 -93.21,-527.4 -37.87,-245.2 -69.94,-491.3 -105.71,-736.8 -54.48,-374 -131.93,-743.7 -205.52,-1114.2 -63.38,-319.2 -117.8,-639.7 -131.32,-965.7 -7.96,-192 -7.31,-383.6 24.71,-573.9 22.04,-130.9 60.23,-256.1 133.69,-368.2 110.16,-168.2 266.11,-261.2 465.98,-280.5 167.19,-16.2 329.87,10.7 490.91,52.4 255.56,66.2 499.45,164.6 740.3,270.8 455.93,201.2 899.77,427.4 1343.36,654 276.12,141 555.39,276.6 815.41,447.1 6.56,4.3 16.16,4 31.4,7.4 0,-52.1 -2.49,-99.1 0.43,-145.9 12.94,-206.4 28.26,-412.7 41.16,-619.1 17.83,-285.3 39.47,-570.4 49.45,-856 6.55,-187.6 1.66,-376.2 -9.39,-563.7 -13.87,-235.2 -61.72,-465.9 -124.71,-692.6 -106.14,-381.9 -217.55,-762.4 -325.76,-1143.7 -108.72,-383.2 -222.03,-765.2 -305.7,-1155 -23.28,-108.4 -42.6,-217.8 -38.67,-329.7 5,-142 72.73,-218.5 213.75,-237.8 46.43,-6.4 93.53,-8.6 140.42,-10.6 40.84,-1.7 81.82,-0.3 130.36,-0.3 -158.07,-672.1 -259.61,-1345.7 -360.64,-2021.5 l 8041.44,3.6 c -6,21.3 -11.6,38.1 -15.1,55.2 -50,241.1 -99.4,482.2 -149.4,723.2 -85.4,412.2 -170.9,824.3 -256.9,1236.3 -14,67.4 -30.5,134.2 -47.3,207.4 24.6,0 43.2,-1 61.7,0.3 43.1,3 86.6,4.6 129.2,11.4 80.1,12.8 122.6,61.1 125.1,142.2 1.2,37.3 1.1,76 -7.1,112.1 -27.5,120.8 -54.7,242 -89.7,360.8 -116,393 -226.6,787.2 -308.6,1189 -71,348 -146.4,695 -247.4,1035.9 -60.8,205.2 -94.5,414 -81,628.8 0.7,11.8 3.8,23.4 6.4,38 60.1,-51.1 114.6,-100.2 171.9,-145.8 224.7,-178.3 477.3,-290 764.7,-318.5 146.6,-14.6 292.9,-12.3 439.2,3.9 208.9,23.1 410.3,73.3 600,165.9 166,81.1 313.9,187.3 434.3,327.2 216.5,251.6 385.5,532.7 500.4,844.6 38.3,104.1 67.7,211.3 44.5,326.8 19.7,9.4 38,18.4 56.5,27 170.3,79.4 341.3,157.4 510.6,238.9 55.6,26.8 110.1,58.3 159.1,95.5 67.4,51.2 120.7,114.3 106.3,217 35,0 66.7,-2.1 97.8,0.7 27,2.4 60,2.2 78.7,17.5 35.9,29.4 79,58.4 77,115.9 -0.4,12.2 8,24.8 12.2,37.2 384.8,1129.3 769.5,2258.7 1154.3,3388 45.4,133.4 87.8,267.9 137.7,399.6 21.3,56 35.9,106.9 18,167"
         style="fill:#000000;fill-opacity:1;fill-rule:nonzero;stroke:none"
         transform="matrix(0.13333333,0,0,-0.13333333,0,2666.6667)" />
    </g>
  </g>
</svg>
